<svg xmlns="http://www.w3.org/2000/svg" width="16.46875" height="24" style="width:16.46875px;height:24px;font-family:Asana-Math, Asana;background:#FFF;"><g><g><g style="transform:matrix(1,0,0,1,2,19);"><path d="M668 288C668 369 637 443 585 497L639 557L604 591L548 529C498 568 436 591 367 591C200 591 65 456 65 288C65 209 96 137 147 82L92 21L126 -13L183 49C234 11 298 -13 367 -13C534 -13 668 122 668 288ZM621 288C621 148 507 35 367 35C309 35 257 54 215 85L554 462C596 417 621 356 621 288ZM517 495L179 118C138 163 113 223 113 288C113 429 226 543 367 543C423 543 475 525 517 495Z" stroke="rgb(0, 0, 0)" stroke-width="8" fill="rgb(0, 0, 0)" style="transform:matrix(0.017,0,0,-0.017,0,0);"></path></g></g></g></svg>