<svg xmlns="http://www.w3.org/2000/svg" width="21.078125" height="24" style="width:21.078125px;height:24px;font-family:Asana-Math, Asana;background:transparent;"><g><g><g style="transform:matrix(1,0,0,1,5.390625,19);"><path d="M51 233L555 233L555 289L51 289ZM304 512C273 512 246 484 246 454C246 423 273 396 303 396C335 396 362 422 362 453C362 484 335 512 304 512ZM304 126C273 126 246 98 246 68C246 37 273 10 303 10C335 10 362 36 362 67C362 98 335 126 304 126Z" stroke="rgb(0, 0, 0)" stroke-width="8" fill="rgb(0, 0, 0)" style="transform:matrix(0.017,0,0,-0.017,0,0);"></path></g></g></g></svg>