<svg xmlns="http://www.w3.org/2000/svg" width="31.200000762939453" height="24" style="width:31.200000762939453px;height:24px;font-family:Asana-Math, Asana;background:transparent;"><g><g><g style="transform:matrix(1,0,0,1,7.0999908447265625,19);"><path d="M499 329C469 329 442 301 442 271C442 241 469 213 498 213C530 213 558 240 558 271C558 301 530 329 499 329ZM166 329C136 329 109 301 109 271C109 241 136 213 165 213C197 213 225 240 225 271C225 301 197 329 166 329ZM832 329C802 329 775 301 775 271C775 241 802 213 831 213C863 213 891 240 891 271C891 301 863 329 832 329Z" stroke="rgb(0, 0, 0)" stroke-width="8" fill="rgb(0, 0, 0)" style="transform:matrix(0.017,0,0,-0.017,0,0);"></path></g></g></g></svg>