<svg xmlns="http://www.w3.org/2000/svg" width="32.58749961853027" height="30.0625" style="width:32.58749961853027px;height:30.0625px;font-family:Asana-Math, Asana;background:transparent;"><g><g><g><g><g><g style="transform:matrix(1,0,0,1,12.20001220703125,13.10001220703125);"><path d="M623 560L65 560L65 0L623 0ZM569 504L569 54L119 54L119 504Z" stroke="rgb(0, 0, 0)" stroke-width="8" fill="rgb(0, 0, 0)" style="transform:matrix(0.0119,0,0,-0.0119,0,0);"></path></g></g></g><g><g><g style="transform:matrix(1,0,0,1,12.20001220703125,25.56253662109375);"><path d="M623 560L65 560L65 0L623 0ZM569 504L569 54L119 54L119 504Z" stroke="rgb(0, 0, 0)" stroke-width="8" fill="rgb(0, 0, 0)" style="transform:matrix(0.0119,0,0,-0.0119,0,0);"></path></g></g></g><svg x="5.4000091552734375" style="overflow:hidden;" y="11.9000244140625" height="20" width="8.5"><svg x="0" style="overflow:hidden;" y="0" height="20" width="8.5"><g style="transform:matrix(1,0,0,1,0,17);"><path d="M37.50057 659L243.50057 445L275.50057 479L150.50057 631L674.50057 631L674.50057 690L150.50057 690L275.50057 842L243.50057 876Z" stroke="rgb(0, 0, 0)" stroke-width="8" fill="rgb(0, 0, 0)" style="transform:matrix(0.017,0,0,-0.017,0,0);"></path></g></svg></svg><svg x="13.900009155273438" style="overflow:hidden;" y="11.9000244140625" height="20" width="13.287500381469727"><svg x="0" style="overflow:hidden;" y="0" height="20" width="17.225000381469727"><g style="transform:matrix(1,0,0,1,0,17);"><path d="M1140 631L1140 690L-126 690L-126 631Z" stroke="rgb(0, 0, 0)" stroke-width="8" fill="rgb(0, 0, 0)" style="transform:matrix(0.017,0,0,-0.017,0,0);"></path></g></svg><svg x="17.225006103515625" style="overflow:hidden;" y="0" height="20" width="17.225000381469727"><g style="transform:matrix(1,0,0,1,0,17);"><path d="M1140 631L1140 690L-126 690L-126 631Z" stroke="rgb(0, 0, 0)" stroke-width="8" fill="rgb(0, 0, 0)" style="transform:matrix(0.017,0,0,-0.017,0,0);"></path></g></svg></svg></g></g></g></svg>