<svg xmlns="http://www.w3.org/2000/svg" width="32.58749961853027" height="32.0625" style="width:32.58749961853027px;height:32.0625px;font-family:Asana-Math, Asana;background:transparent;"><g><g><g><g><g></g></g><g><g><g style="transform:matrix(1,0,0,1,12.20001220703125,27.562506103515624);"><path d="M623 560L65 560L65 0L623 0ZM569 504L569 54L119 54L119 504Z" stroke="rgb(0, 0, 0)" stroke-width="8" fill="rgb(0, 0, 0)" style="transform:matrix(0.0119,0,0,-0.0119,0,0);"></path></g></g></g><svg x="5.4000091552734375" style="overflow:hidden;" y="13.899993896484375" height="20" width="13.287500381469727"><svg x="0" style="overflow:hidden;" y="0" height="20" width="17.225000381469727"><g style="transform:matrix(1,0,0,1,0,17);"><path d="M1140 631L1140 690L-126 690L-126 631Z" stroke="rgb(0, 0, 0)" stroke-width="8" fill="rgb(0, 0, 0)" style="transform:matrix(0.017,0,0,-0.017,0,0);"></path></g></svg><svg x="17.225006103515625" style="overflow:hidden;" y="0" height="20" width="17.225000381469727"><g style="transform:matrix(1,0,0,1,0,17);"><path d="M1140 631L1140 690L-126 690L-126 631Z" stroke="rgb(0, 0, 0)" stroke-width="8" fill="rgb(0, 0, 0)" style="transform:matrix(0.017,0,0,-0.017,0,0);"></path></g></svg></svg><svg x="18.687515258789062" style="overflow:hidden;" y="13.899993896484375" height="20" width="8.5"><svg x="0" style="overflow:hidden;" y="0" height="20" width="8.5"><g style="transform:matrix(1,0,0,1,0,17);"><path d="M474.50724 662L268.50724 876L236.50724 842L361.50724 690L-162.49276 690L-162.49276 631L361.50724 631L236.50724 479L268.50724 445Z" stroke="rgb(0, 0, 0)" stroke-width="8" fill="rgb(0, 0, 0)" style="transform:matrix(0.017,0,0,-0.017,0,0);"></path></g></svg></svg></g></g></g></svg>