<svg xmlns="http://www.w3.org/2000/svg" width="32.640625" height="30" style="width:32.640625px;height:30px;font-family:Asana-Math, Asana;background:transparent;"><g><g><g><g><g><g style="transform:matrix(1,0,0,1,12.19232177734375,13.899999618530273);"><path d="M623 560L65 560L65 0L623 0ZM569 504L569 54L119 54L119 504Z" stroke="rgb(48, 79, 254)" stroke-width="8" fill="rgb(48, 79, 254)" style="transform:matrix(0.011899999618530274,0,0,-0.011899999618530274,0,0);"></path></g></g></g><g><g><g style="transform:matrix(1,0,0,1,12.19232177734375,26.774999618530273);"><path d="M623 560L65 560L65 0L623 0ZM569 504L569 54L119 54L119 504Z" stroke="rgb(48, 79, 254)" stroke-width="8" fill="rgb(48, 79, 254)" style="transform:matrix(0.011899999618530274,0,0,-0.011899999618530274,0,0);"></path></g></g></g><svg x="5.390625" style="overflow:hidden;" y="12.3125" height="20" width="13.359375"><svg x="0" style="overflow:hidden;" y="0" height="20" width="17.234375"><g style="transform:matrix(1,0,0,1,0.0067138671875,17);"><path d="M1140 631L1140 690L-126 690L-126 631Z" stroke="rgb(0, 0, 0)" stroke-width="8" fill="rgb(0, 0, 0)" style="transform:matrix(0.017,0,0,-0.017,0,0);"></path></g></svg><svg x="17.234375" style="overflow:hidden;" y="0" height="20" width="17.234375"><g style="transform:matrix(1,0,0,1,0.0067138671875,17);"><path d="M1140 631L1140 690L-126 690L-126 631Z" stroke="rgb(0, 0, 0)" stroke-width="8" fill="rgb(0, 0, 0)" style="transform:matrix(0.017,0,0,-0.017,0,0);"></path></g></svg></svg><svg x="18.75" style="overflow:hidden;" y="12.3125" height="20" width="8.5"><svg x="0" style="overflow:hidden;" y="0" height="20" width="8.5"><g style="transform:matrix(1,0,0,1,0,17);"><path d="M474.50724 662L268.50724 876L236.50724 842L361.50724 690L-162.49276 690L-162.49276 631L361.50724 631L236.50724 479L268.50724 445Z" stroke="rgb(0, 0, 0)" stroke-width="8" fill="rgb(0, 0, 0)" style="transform:matrix(0.017,0,0,-0.017,0,0);"></path></g></svg></svg></g></g></g></svg>