<svg xmlns="http://www.w3.org/2000/svg" width="14.33750057220459" height="24" style="width:14.33750057220459px;height:24px;font-family:Asana-Math, Asana;background:transparent;"><g><g><g style="transform:matrix(1,0,0,1,2,19);"><path d="M314 216C363 260 522 416 601 434L601 444C587 458 568 469 548 479C469 402 386 320 310 239C295 410 294 473 232 473C186 473 144 434 114 405L114 391L128 391L128 392C237 502 248 262 259 183C161 83 69 -32 -1 -152C7 -167 18 -182 32 -193L43 -193C102 -72 182 42 262 151C280 -26 285 -172 371 -172C418 -172 461 -136 495 -107L495 -96L484 -96C327 -207 332 124 314 216Z" stroke="rgb(0, 0, 0)" stroke-width="8" fill="rgb(0, 0, 0)" style="transform:matrix(0.017,0,0,-0.017,0,0);"></path></g></g></g></svg>