<svg xmlns="http://www.w3.org/2000/svg" width="12.52500057220459" height="24" style="width:12.52500057220459px;height:24px;font-family:Asana-Math, Asana;background:transparent;"><g><g><g style="transform:matrix(1,0,0,1,2,19);"><path d="M166 -107L209 -155C285 -134 406 -55 408 34C408 59 391 67 368 67C321 67 274 57 227 57C58 57 54 230 143 336C223 431 338 412 449 413C454 426 455 447 458 463L323 463C83 463 -94 -6 194 -6C240 -6 285 5 330 5C345 5 360 0 357 -16C345 -90 247 -119 166 -107Z" stroke="rgb(0, 0, 0)" stroke-width="8" fill="rgb(0, 0, 0)" style="transform:matrix(0.017,0,0,-0.017,0,0);"></path></g></g></g></svg>