<svg xmlns="http://www.w3.org/2000/svg" width="13.037500381469727" height="24" style="width:13.037500381469727px;height:24px;font-family:Asana-Math, Asana;background:transparent;"><g><g><g style="transform:matrix(1,0,0,1,2,19);"><path d="M215 473C182 473 71 404 38 383L38 377L50 366L50 364C73 373 133 429 143 382C141 316 98 73 77 -6L77 -16C98 -6 127 3 149 9C165 134 177 423 351 426C396 426 421 402 421 356C424 186 303 -113 326 -275C350 -264 380 -255 405 -251C362 -129 495 274 497 382C499 444 459 473 400 473C324 473 255 424 210 367L210 369C226 433 242 473 215 473Z" stroke="rgb(0, 0, 0)" stroke-width="8" fill="rgb(0, 0, 0)" style="transform:matrix(0.017,0,0,-0.017,0,0);"></path></g></g></g></svg>