<svg xmlns="http://www.w3.org/2000/svg" width="15.824999809265137" height="24" style="width:15.824999809265137px;height:24px;font-family:Asana-Math, Asana;background:transparent;"><g><g><g style="transform:matrix(1,0,0,1,2,19);"><path d="M209 428C209 445 202 463 182 463C151 463 67 413 39 394L39 378L50 378L50 377C68 387 87 399 107 399C175 399 99 224 95 120C90 -3 185 -21 296 -8C279 -96 266 -186 239 -271L239 -281C259 -274 280 -264 300 -254C306 -171 316 -88 326 -5C482 24 651 212 653 372C653 391 651 458 623 458C608 458 572 442 557 438L557 425C637 247 508 59 334 38C378 251 413 465 463 676L463 682C444 677 427 671 410 662C386 454 344 243 304 36L283 36C79 26 205 310 209 428Z" stroke="rgb(0, 0, 0)" stroke-width="8" fill="rgb(0, 0, 0)" style="transform:matrix(0.017,0,0,-0.017,0,0);"></path></g></g></g></svg>