<svg xmlns="http://www.w3.org/2000/svg" width="13.300000190734863" height="24" style="width:13.300000190734863px;height:24px;font-family:Asana-Math, Asana;background:transparent;"><g><g><g style="transform:matrix(1,0,0,1,2,19);"><path d="M371 6C389 6 406 1 407 -20C393 -81 288 -113 221 -99L221 -108C241 -120 260 -133 274 -148C333 -125 461 -43 463 28C463 58 435 66 411 66C300 66 118 9 118 148C118 283 263 353 397 338C405 348 411 359 421 366L421 374C341 376 255 404 256 501C258 619 403 646 493 647C500 646 500 667 501 696C452 671 395 656 339 656C310 656 240 657 242 701C230 695 200 684 200 666C198 627 303 637 320 636L320 629C256 609 186 563 184 489C183 417 244 388 303 369L303 360C193 329 42 264 42 131C42 -34 228 6 371 6Z" stroke="rgb(0, 0, 0)" stroke-width="8" fill="rgb(0, 0, 0)" style="transform:matrix(0.017,0,0,-0.017,0,0);"></path></g></g></g></svg>