<svg xmlns="http://www.w3.org/2000/svg" width="14.550000190734863" height="24" style="width:14.550000190734863px;height:24px;font-family:Asana-Math, Asana;background:transparent;"><g><g><g style="transform:matrix(1,0,0,1,2,19);"><path d="M237 -15C370 -15 463 144 504 252C528 261 550 275 572 291L572 299C554 300 537 302 520 305C556 433 545 702 363 702C267 702 189 617 187 522C185 380 350 296 468 265C447 188 381 33 284 33C171 33 233 304 166 304C129 304 66 248 41 225L41 209L54 209C66 220 85 239 102 239C165 239 109 -15 237 -15ZM329 664C472 664 491 437 478 317C386 363 230 449 232 569C232 622 276 664 329 664Z" stroke="rgb(0, 0, 0)" stroke-width="8" fill="rgb(0, 0, 0)" style="transform:matrix(0.017,0,0,-0.017,0,0);"></path></g></g></g></svg>