<svg xmlns="http://www.w3.org/2000/svg" width="12.574999809265137" height="24" style="width:12.574999809265137px;height:24px;font-family:Asana-Math, Asana;background:transparent;"><g><g><g style="transform:matrix(1,0,0,1,2,19);"><path d="M223 -100L223 -108C238 -121 252 -137 269 -149C339 -136 462 -53 464 26C464 56 440 65 415 65C254 65 106 51 118 232C131 426 238 643 453 656C461 672 467 695 473 712L459 712C404 687 341 663 279 663C247 663 196 668 185 705L174 705L135 684L135 665C177 631 233 641 295 643L295 638C162 531 60 360 50 187C39 3 199 4 374 4C389 4 416 2 413 -18C401 -85 296 -117 223 -100Z" stroke="rgb(0, 0, 0)" stroke-width="8" fill="rgb(0, 0, 0)" style="transform:matrix(0.017,0,0,-0.017,0,0);"></path></g></g></g></svg>