<svg xmlns="http://www.w3.org/2000/svg" width="12.387499809265137" height="24" style="width:12.387499809265137px;height:24px;font-family:Asana-Math, Asana;background:transparent;"><g><g><g style="transform:matrix(1,0,0,1,2,19);"><path d="M224 -15C292 -15 346 9 397 55L386 67C310 3 129 -2 132 131C135 235 247 265 341 235C345 238 340 218 346 277C278 259 193 267 196 348C198 409 249 457 309 457C365 457 400 417 385 358L400 358L446 434C347 501 147 489 133 352C128 300 166 274 211 262L211 254C128 247 56 205 55 113C53 12 138 -15 224 -15Z" stroke="rgb(0, 0, 0)" stroke-width="8" fill="rgb(0, 0, 0)" style="transform:matrix(0.017,0,0,-0.017,0,0);"></path></g></g></g></svg>