<svg xmlns="http://www.w3.org/2000/svg" width="12.71250057220459" height="24" style="width:12.71250057220459px;height:24px;font-family:Asana-Math, Asana;background:transparent;"><g><g><g style="transform:matrix(1,0,0,1,2,19);"><path d="M459 205C459 301 389 358 298 360L298 369C391 400 475 479 476 581C477 644 445 680 381 680C154 680 114 463 89 289C62 101 36 -87 -8 -273L-8 -283C18 -274 43 -265 70 -259C76 -162 90 -66 104 29C239 -84 459 37 459 205ZM216 12C159 12 123 45 124 103C126 205 190 570 278 629C337 668 411 631 406 558C398 447 310 371 204 371C201 338 204 378 200 329C294 362 383 309 378 208C374 115 322 12 216 12Z" stroke="rgb(0, 0, 0)" stroke-width="8" fill="rgb(0, 0, 0)" style="transform:matrix(0.017,0,0,-0.017,0,0);"></path></g></g></g></svg>