<svg xmlns="http://www.w3.org/2000/svg" width="13.300000190734863" height="24" style="width:13.300000190734863px;height:24px;font-family:Asana-Math, Asana;background:transparent;"><g><g><g style="transform:matrix(1,0,0,1,2,19);"><path d="M186 463C133 463 78 420 39 388L39 379C42 374 45 370 52 369C70 382 98 407 120 407C234 407 -40 -11 186 -12C345 -12 507 210 509 358C510 407 489 444 449 471C427 458 408 445 385 434L385 424C427 406 439 353 438 311C437 211 339 24 225 24C182 24 164 60 165 99C166 202 230 329 231 418C231 446 215 463 186 463Z" stroke="rgb(0, 0, 0)" stroke-width="8" fill="rgb(0, 0, 0)" style="transform:matrix(0.017,0,0,-0.017,0,0);"></path></g></g></g></svg>