<svg xmlns="http://www.w3.org/2000/svg" width="13.387499809265137" height="24" style="width:13.387499809265137px;height:24px;font-family:Asana-Math, Asana;background:transparent;"><g><g><g style="transform:matrix(1,0,0,1,2,19);"><path d="M171 -15C331 -15 431 100 434 257C436 343 410 361 345 404L345 407C398 407 457 403 511 411C518 431 521 451 524 474C485 453 364 467 313 457C150 424 28 329 28 153C28 48 59 -15 171 -15ZM367 267C367 168 329 13 203 13C111 13 103 112 104 182C105 292 143 412 274 412C359 412 367 328 367 267Z" stroke="rgb(0, 0, 0)" stroke-width="8" fill="rgb(0, 0, 0)" style="transform:matrix(0.017,0,0,-0.017,0,0);"></path></g></g></g></svg>