<svg xmlns="http://www.w3.org/2000/svg" width="20.17500114440918" height="24" style="width:20.17500114440918px;height:24px;font-family:Asana-Math, Asana;background:transparent;"><g><g><g style="transform:matrix(1,0,0,1,2,19);"><path d="M934 662L934 692C889 691 854 689 814 689C778 689 738 691 698 692L698 662L742 659C785 655 793 651 793 569L793 102L789 102L312 692C294 691 276 689 258 689L138 689C96 689 51 691 17 692L17 662L61 659C102 656 112 648 112 569L112 120C112 41 102 31 61 29L17 27L17 -3C51 -2 96 -2 138 -1C178 -1 218 0 254 0C294 0 329 -2 374 -3L374 27L329 29C286 31 279 41 279 120L279 581L281 581L752 0L839 0L839 569C839 653 848 655 889 659ZM189 31C163 34 158 46 158 120L158 569C158 643 163 655 189 658C227 654 233 648 233 569L233 120C233 40 226 35 189 31Z" stroke="rgb(0, 0, 0)" stroke-width="8" fill="rgb(0, 0, 0)" style="transform:matrix(0.017,0,0,-0.017,0,0);"></path></g></g></g></svg>