<svg xmlns="http://www.w3.org/2000/svg" width="17.875" height="24" style="width:17.875px;height:24px;font-family:Asana-Math, Asana;background:transparent;"><g><g><g style="transform:matrix(1,0,0,1,2,19);"><path d="M788 173L754 173L748 116C741 48 723 44 574 44L301 44L787 663L783 692C731 691 739 689 687 689L477 689C345 689 212 691 80 692C84 638 84 584 80 529L114 529L120 601C123 634 134 648 272 648L500 648C478 609 444 568 414 529L112 142C81 102 47 64 15 25L15 -3C119 -2 373 0 477 0C580 0 684 -2 782 -3C782 54 783 118 788 173ZM709 648C688 609 654 568 624 529L322 142C296 108 268 76 241 44L151 44L625 648Z" stroke="rgb(0, 0, 0)" stroke-width="8" fill="rgb(0, 0, 0)" style="transform:matrix(0.017,0,0,-0.017,0,0);"></path></g></g></g></svg>