<svg xmlns="http://www.w3.org/2000/svg" width="17.350000381469727" height="24" style="width:17.350000381469727px;height:24px;font-family:Asana-Math, Asana;background:transparent;"><g><g><g style="transform:matrix(1,0,0,1,2,19);"><path d="M408 -20L408 -18C602 -11 764 160 764 367C764 589 612 709 398 709C166 709 22 552 22 348C22 118 166 -19 377 -19L383 -19L383 -21L372 -25C353 -32 311 -60 263 -97L261 -129L320 -97C327 -93 335 -89 346 -89C369 -89 393 -94 426 -104L574 -149C616 -162 648 -169 680 -176L764 -120L764 -99C616 -129 518 -32 408 -20ZM657 336C657 152 583 23 409 23C349 23 300 40 261 67L261 642C295 658 335 667 382 667C568 667 657 534 657 336ZM215 109C156 179 129 281 129 381C129 478 157 560 215 611Z" stroke="rgb(0, 0, 0)" stroke-width="8" fill="rgb(0, 0, 0)" style="transform:matrix(0.017,0,0,-0.017,0,0);"></path></g></g></g></svg>