<svg xmlns="http://www.w3.org/2000/svg" width="16.25" height="24" style="width:16.25px;height:24px;font-family:Asana-Math, Asana;background:transparent;"><g><g><g style="transform:matrix(1,0,0,1,2,19);"><path d="M432 -3L432 27L384 29C340 31 333 41 333 120L333 642C361 649 389 654 435 654C534 654 597 609 597 505C597 420 534 356 453 356C431 356 409 359 387 366L397 329C417 326 437 324 457 324C589 324 697 414 697 539C697 652 587 695 489 692L22 692L22 662L66 659C107 656 117 648 117 569L117 120C117 41 107 31 66 29L22 27L22 -3C22 -3 39 0 198 0C244 0 380 -1 432 -3ZM195 31C168 31 163 46 163 120L163 569C163 642 168 654 194 658C232 654 238 637 238 569L238 120C238 45 233 31 195 31Z" stroke="rgb(0, 0, 0)" stroke-width="8" fill="rgb(0, 0, 0)" style="transform:matrix(0.017,0,0,-0.017,0,0);"></path></g></g></g></svg>