<svg xmlns="http://www.w3.org/2000/svg" width="16.037500381469727" height="24" style="width:16.037500381469727px;height:24px;font-family:Asana-Math, Asana;background:transparent;"><g><g><g style="transform:matrix(1,0,0,1,2,19);"><path d="M614 588L614 516L645 516C645 568 654 621 664 668C616 685 526 709 433 709C206 709 22 571 22 344C22 117 184 -20 424 -20C485 -20 584 -1 642 34L669 84L661 94C615 60 529 34 458 34C381 34 314 53 261 89L261 627C303 652 355 667 416 667C492 667 614 632 614 588ZM215 127C160 184 129 263 129 360C129 452 158 535 215 591Z" stroke="rgb(0, 0, 0)" stroke-width="8" fill="rgb(0, 0, 0)" style="transform:matrix(0.017,0,0,-0.017,0,0);"></path></g></g></g></svg>