<svg xmlns="http://www.w3.org/2000/svg" width="17.33750057220459" height="24" style="width:17.33750057220459px;height:24px;font-family:Asana-Math, Asana;background:transparent;"><g><g><g style="transform:matrix(1,0,0,1,2,19);"><path d="M402 371C393 371 384 371 375 372L369 360L646 -3C669 -2 691 0 714 0C737 0 760 -2 786 -3L786 27C762 29 740 34 725 53L498 349C595 368 693 433 693 542C693 612 653 692 502 692L22 692L22 662L66 659C107 656 117 648 117 569L117 120C117 41 107 31 66 29L22 27L22 -3C22 -3 77 0 236 0C282 0 380 -1 432 -3L432 27L384 29C340 31 333 41 333 120L333 642C361 649 389 654 435 654C513 654 593 624 593 516C593 458 552 371 402 371ZM195 31C168 31 163 46 163 120L163 569C163 643 169 655 196 658C234 654 238 647 238 569L238 120C238 45 233 31 195 31Z" stroke="rgb(0, 0, 0)" stroke-width="8" fill="rgb(0, 0, 0)" style="transform:matrix(0.017,0,0,-0.017,0,0);"></path></g></g></g></svg>