<svg xmlns="http://www.w3.org/2000/svg" width="61.400001525878906" height="47" style="width:61.400001525878906px;height:47px;font-family:Asana-Math, Asana;background:transparent;"><g><g><g><g><g><g style="transform:matrix(1,0,0,1,13.25,19.800048828125);"><path d="M623 560L65 560L65 0L623 0ZM569 504L569 54L119 54L119 504Z" stroke="rgb(0, 0, 0)" stroke-width="8" fill="rgb(0, 0, 0)" style="transform:matrix(0.017,0,0,-0.017,0,0);"></path></g></g></g><g><g><g style="transform:matrix(1,0,0,1,36.44999694824219,19.800048828125);"><path d="M623 560L65 560L65 0L623 0ZM569 504L569 54L119 54L119 504Z" stroke="rgb(0, 0, 0)" stroke-width="8" fill="rgb(0, 0, 0)" style="transform:matrix(0.017,0,0,-0.017,0,0);"></path></g></g></g><g><g><g style="transform:matrix(1,0,0,1,13.25,40.60003662109375);"><path d="M623 560L65 560L65 0L623 0ZM569 504L569 54L119 54L119 504Z" stroke="rgb(0, 0, 0)" stroke-width="8" fill="rgb(0, 0, 0)" style="transform:matrix(0.017,0,0,-0.017,0,0);"></path></g></g></g><g><g><g style="transform:matrix(1,0,0,1,36.44999694824219,40.60003662109375);"><path d="M623 560L65 560L65 0L623 0ZM569 504L569 54L119 54L119 504Z" stroke="rgb(0, 0, 0)" stroke-width="8" fill="rgb(0, 0, 0)" style="transform:matrix(0.017,0,0,-0.017,0,0);"></path></g></g></g><svg x="2" style="overflow:visible;" y="2" height="43" width="8.5"><path d=" M 6.61 1.70 q 0.00 -0.12 -0.10 -0.12 q -0.03 0.00 -0.10 0.03 q -1.26 0.80 -2.19 1.88 t -1.72 2.71 t -1.19 4.02 t -0.41 5.48 v 0.90 h 1.68 v -0.90 q 0.00 -1.73 0.05 -3.01 t 0.28 -2.96 t 0.62 -2.94 t 1.14 -2.52 t 1.79 -2.15 q 0.15 -0.14 0.15 -0.43 z   M 0.90 16.61 v 9.78 h 1.68 v -9.78 z" style="fill:rgb(0, 0, 0);stroke-width:1px;stroke:none;"></path><path d=" M 6.61 41.30 q 0.00 0.12 -0.10 0.12 q -0.03 0.00 -0.10 -0.03 q -1.26 -0.80 -2.19 -1.88 t -1.72 -2.71 t -1.19 -4.02 t -0.41 -5.48 v -0.90 h 1.68 v 0.90 q 0.00 1.73 0.05 3.01 t 0.28 2.96 t 0.62 2.94 t 1.14 2.52 t 1.79 2.15 q 0.15 0.14 0.15 0.43 z" style="fill:rgb(0, 0, 0);stroke-width:1px;stroke:none;"></path></svg><svg x="50.90000915527344" style="overflow:visible;" y="2" height="43" width="8.5"><path d=" M 1.19 1.70 q 0.00 -0.12 0.10 -0.12 q 0.03 0.00 0.10 0.03 q 1.26 0.80 2.19 1.88 t 1.72 2.71 t 1.19 4.02 t 0.41 5.48 v 0.90 h -1.68 v -0.90 q 0.00 -1.73 -0.05 -3.01 t -0.28 -2.96 t -0.62 -2.94 t -1.14 -2.52 t -1.79 -2.15 q -0.15 -0.14 -0.15 -0.43 z  M 6.90 16.61 v 9.78 h -1.68 v -9.78 z" style="fill:rgb(0, 0, 0);stroke-width:1px;stroke:none;"></path><path d=" M 1.19 41.30 q 0.00 0.12 0.10 0.12 q 0.03 0.00 0.10 -0.03 q 1.26 -0.80 2.19 -1.88 t 1.72 -2.71 t 1.19 -4.02 t 0.41 -5.48 v -0.90 h -1.68 v 0.90 q 0.00 1.73 -0.05 3.01 t -0.28 2.96 t -0.62 2.94 t -1.14 2.52 t -1.79 2.15 q -0.15 0.14 -0.15 0.43 z" style="fill:rgb(0, 0, 0);stroke-width:1px;stroke:none;"></path></svg></g></g></g></svg>