<svg xmlns="http://www.w3.org/2000/svg" width="64.79999923706055" height="47" style="width:64.79999923706055px;height:47px;font-family:Asana-Math, Asana;background:transparent;"><g><g><g><g><g><g style="transform:matrix(1,0,0,1,14.949996948242188,19.79998779296875);"><path d="M623 560L65 560L65 0L623 0ZM569 504L569 54L119 54L119 504Z" stroke="rgb(0, 0, 0)" stroke-width="8" fill="rgb(0, 0, 0)" style="transform:matrix(0.017,0,0,-0.017,0,0);"></path></g></g></g><g><g><g style="transform:matrix(1,0,0,1,38.149993896484375,19.79998779296875);"><path d="M623 560L65 560L65 0L623 0ZM569 504L569 54L119 54L119 504Z" stroke="rgb(0, 0, 0)" stroke-width="8" fill="rgb(0, 0, 0)" style="transform:matrix(0.017,0,0,-0.017,0,0);"></path></g></g></g><g><g><g style="transform:matrix(1,0,0,1,14.949996948242188,40.600006103515625);"><path d="M623 560L65 560L65 0L623 0ZM569 504L569 54L119 54L119 504Z" stroke="rgb(0, 0, 0)" stroke-width="8" fill="rgb(0, 0, 0)" style="transform:matrix(0.017,0,0,-0.017,0,0);"></path></g></g></g><g><g><g style="transform:matrix(1,0,0,1,38.149993896484375,40.600006103515625);"><path d="M623 560L65 560L65 0L623 0ZM569 504L569 54L119 54L119 504Z" stroke="rgb(0, 0, 0)" stroke-width="8" fill="rgb(0, 0, 0)" style="transform:matrix(0.017,0,0,-0.017,0,0);"></path></g></g></g><svg x="2" style="overflow:visible;" y="2" height="43" width="10.199999809265137"><rect style="fill:rgb(0, 0, 0);stroke-width:1px;stroke:none;" x="4.44" y="1.89" width="1.31" height="39.22"></rect></svg><svg x="52.600006103515625" style="overflow:visible;" y="2" height="43" width="10.199999809265137"><rect style="fill:rgb(0, 0, 0);stroke-width:1px;stroke:none;" x="4.44" y="1.89" width="1.31" height="39.22"></rect></svg></g></g></g></svg>