<svg xmlns="http://www.w3.org/2000/svg" width="27.36250114440918" height="24" style="width:27.36250114440918px;height:24px;font-family:Asana-Math, Asana;background:transparent;"><g><g><g style="transform:matrix(1,0,0,1,7.100006103515625,19);"><path d="M428 318C407 339 368 338 347 317C326 296 325 257 346 236C368 214 407 213 429 235C450 256 450 296 428 318ZM193 553C172 574 133 574 112 552C90 531 90 492 110 472C133 449 172 449 194 470C215 492 215 531 193 553ZM664 82C643 103 604 103 582 82C561 60 561 21 581 1C604 -22 643 -22 664 0C686 21 686 60 664 82Z" stroke="rgb(0, 0, 0)" stroke-width="8" fill="rgb(0, 0, 0)" style="transform:matrix(0.017,0,0,-0.017,0,0);"></path></g></g></g></svg>