<svg xmlns="http://www.w3.org/2000/svg" width="27.36250114440918" height="24" style="width:27.36250114440918px;height:24px;font-family:Asana-Math, Asana;background:transparent;"><g><g><g style="transform:matrix(1,0,0,1,7.100006103515625,19);"><path d="M346 318C325 297 326 258 347 237C368 216 407 215 428 236C450 258 451 297 429 319C408 340 368 340 346 318ZM111 83C90 62 90 23 112 2C133 -20 172 -20 192 0C215 23 215 62 194 84C172 105 133 105 111 83ZM582 554C561 533 561 494 582 472C604 451 643 451 663 471C686 494 686 533 664 554C643 576 604 576 582 554Z" stroke="rgb(0, 0, 0)" stroke-width="8" fill="rgb(0, 0, 0)" style="transform:matrix(0.017,0,0,-0.017,0,0);"></path></g></g></g></svg>