<svg xmlns="http://www.w3.org/2000/svg" width="34.39999961853027" height="84" style="width:34.39999961853027px;height:84px;font-family:Asana-Math, Asana;background:transparent;"><g><g><g><g><g><g style="transform:matrix(1,0,0,1,2,39);"><path d="M623 560L65 560L65 0L623 0ZM569 504L569 54L119 54L119 504Z" stroke="rgb(0, 0, 0)" stroke-width="8" fill="rgb(0, 0, 0)" style="transform:matrix(0.017,0,0,-0.017,0,0);"></path></g></g></g><g><g><g style="transform:matrix(1,0,0,1,20.70001220703125,19);"><path d="M623 560L65 560L65 0L623 0ZM569 504L569 54L119 54L119 504Z" stroke="rgb(0, 0, 0)" stroke-width="8" fill="rgb(0, 0, 0)" style="transform:matrix(0.017,0,0,-0.017,0,0);"></path></g></g></g><g><g><g style="transform:matrix(1,0,0,1,20.70001220703125,39);"><path d="M623 560L65 560L65 0L623 0ZM569 504L569 54L119 54L119 504Z" stroke="rgb(0, 0, 0)" stroke-width="8" fill="rgb(0, 0, 0)" style="transform:matrix(0.017,0,0,-0.017,0,0);"></path></g></g></g><g><g></g></g><g><g></g></g><svg x="2" style="overflow:visible;" y="2" height="80" width="30.399999618530273"><path d="M12.7,20 L30.4,20" style="fill:none;stroke-width:1px;stroke:rgb(0, 0, 0);"></path><g transform="matrix(1,0,0,1,11.700000762939453,19)"><path d=" M 1.41 1.30 q 0.00 -0.07 0.06 -0.07 q 0.02 0.00 0.06 0.02 q 0.77 0.49 1.34 1.16 t 1.05 1.67 t 0.73 2.48 t 0.25 3.38 v 0.56 h -1.29 v -0.56 q 0.00 -1.07 -0.03 -1.86 t -0.17 -1.83 t -0.38 -1.81 t -0.70 -1.56 t -1.09 -1.33 q -0.09 -0.08 -0.09 -0.26 z  M 5.78 10.50 v 0.00 h -1.29 v 0.00 z" style="fill:rgb(0, 0, 0);stroke-width:1px;stroke:none;"></path><path d=" M 1.41 19.70 q 0.00 0.07 0.06 0.07 q 0.02 0.00 0.06 -0.02 q 0.77 -0.49 1.34 -1.16 t 1.05 -1.67 t 0.73 -2.48 t 0.25 -3.38 v -0.56 h -1.29 v 0.56 q 0.00 1.07 -0.03 1.86 t -0.17 1.83 t -0.38 1.81 t -0.70 1.56 t -1.09 1.33 q -0.09 0.08 -0.09 0.26 z" style="fill:rgb(0, 0, 0);stroke-width:1px;stroke:none;"></path></g><path d="M18.7,60 L28.7,60 " style="fill:none;stroke-width:1px;stroke:rgb(0, 0, 0);"></path></svg></g></g></g></svg>