<svg xmlns="http://www.w3.org/2000/svg" width="34.40625" height="84" style="width:34.40625px;height:84px;font-family:Asana-Math, Asana;background:transparent;"><g><g><g><g><g><g style="transform:matrix(1,0,0,1,2,39);"><path d="M623 560L65 560L65 0L623 0ZM569 504L569 54L119 54L119 504Z" stroke="rgb(48, 79, 254)" stroke-width="8" fill="rgb(48, 79, 254)" style="transform:matrix(0.017,0,0,-0.017,0,0);"></path></g></g></g><g><g><g style="transform:matrix(1,0,0,1,20.703125,19);"><path d="M623 560L65 560L65 0L623 0ZM569 504L569 54L119 54L119 504Z" stroke="rgb(48, 79, 254)" stroke-width="8" fill="rgb(48, 79, 254)" style="transform:matrix(0.017,0,0,-0.017,0,0);"></path></g></g></g><g><g><g style="transform:matrix(1,0,0,1,20.703125,39);"><path d="M623 560L65 560L65 0L623 0ZM569 504L569 54L119 54L119 504Z" stroke="rgb(48, 79, 254)" stroke-width="8" fill="rgb(48, 79, 254)" style="transform:matrix(0.017,0,0,-0.017,0,0);"></path></g></g></g><g><g></g></g><g><g></g></g><svg x="2" style="overflow:visible;" y="2" height="80" width="30.40625"><path d="M12.7,20 L30.41,20" style="fill:none;stroke-width:1px;stroke:rgb(0, 0, 0);"></path><g transform="matrix(1,0,0,1,11.703125,19)"><path d=" M 1.34 1.30 c 0.00 -0.04 0.03 -0.06 0.06 -0.06 c 0.02 0.00 0.04 0.01 0.06 0.02 c 1.95 1.02 3.55 2.85 3.55 7.18 v 0.46 h -1.17 v -0.46 c 0.00 -2.47 -0.49 -5.37 -2.53 -6.92 c -0.09 -0.07 -0.10 -0.15 -0.10 -0.22 z  M 5.03 8.90 v 3.20 h -1.17 v -3.20 z" style="fill:rgb(0, 0, 0);stroke-width:1px;stroke:none;"></path><path d=" M 1.34 19.70 c 0.00 0.04 0.03 0.06 0.06 0.06 c 0.02 0.00 0.04 -0.01 0.06 -0.02 c 1.95 -1.02 3.55 -2.85 3.55 -7.18 v -0.46 h -1.17 v 0.46 c 0.00 2.47 -0.49 5.37 -2.53 6.92 c -0.09 0.07 -0.10 0.15 -0.10 0.22 z" style="fill:rgb(0, 0, 0);stroke-width:1px;stroke:none;"></path></g><path d="M18.7,60 L28.7,60 " style="fill:none;stroke-width:1px;stroke:rgb(0, 0, 0);"></path></svg></g></g></g></svg>