<svg xmlns="http://www.w3.org/2000/svg" width="28.65625" height="52" style="width:28.65625px;height:52px;font-family:Asana-Math, Asana;background:transparent;"><g><g><g><g><g></g></g><g><g><g style="transform:matrix(1,0,0,1,8.92669677734375,47.89999961853027);"><path d="M623 560L65 560L65 0L623 0ZM569 504L569 54L119 54L119 504Z" stroke="rgb(48, 79, 254)" stroke-width="8" fill="rgb(48, 79, 254)" style="transform:matrix(0.011899999618530274,0,0,-0.011899999618530274,0,0);"></path></g></g></g><g style="transform:matrix(1,0,0,1,2.00469970703125,28.953125);"><path d="M788 13L772 -310L62 -310L420 133L66 620L754 620L768 346L732 346C718 428 694 486 662 522C626 559 572 578 498 578L246 578L524 194L214 -205L512 -205C592 -205 648 -190 680 -162C714 -132 734 -74 746 13Z" stroke="rgb(0, 0, 0)" stroke-width="8" fill="rgb(0, 0, 0)" style="transform:matrix(0.0255,0,0,-0.0255,0,0);"></path></g></g></g></g></svg>