<svg xmlns="http://www.w3.org/2000/svg" width="32.40625" height="56" style="width:32.40625px;height:56px;font-family:Asana-Math, Asana;background:transparent;"><g><g><g><g><g><g style="transform:matrix(1,0,0,1,10.80169677734375,13.899999618530273);"><path d="M623 560L65 560L65 0L623 0ZM569 504L569 54L119 54L119 504Z" stroke="rgb(48, 79, 254)" stroke-width="8" fill="rgb(48, 79, 254)" style="transform:matrix(0.011899999618530274,0,0,-0.011899999618530274,0,0);"></path></g></g></g><g><g><g style="transform:matrix(1,0,0,1,10.80169677734375,51.91562461853027);"><path d="M623 560L65 560L65 0L623 0ZM569 504L569 54L119 54L119 504Z" stroke="rgb(48, 79, 254)" stroke-width="8" fill="rgb(48, 79, 254)" style="transform:matrix(0.011899999618530274,0,0,-0.011899999618530274,0,0);"></path></g></g></g><g style="transform:matrix(1,0,0,1,2.0076904296875,32.96875);"><path d="M941 -311L941 -271C896 -270 856 -255 830 -220C803 -186 807 111 807 144C807 173 804 515 831 547C860 581 893 589 941 586L941 626C531 620 388 622 57 624L55 586C101 586 139 582 168 547C194 516 187 177 187 146C188 114 188 -186 163 -218C135 -255 100 -270 54 -271L55 -309C71 -302 217 -298 233 -298C251 -298 412 -302 428 -311L428 -271C382 -270 343 -255 315 -220C290 -186 295 110 295 142C295 172 301 563 301 563L699 563C699 563 697 175 697 144C697 111 701 -186 676 -218C648 -255 611 -270 565 -271L566 -309C580 -302 732 -298 747 -298C763 -298 924 -302 941 -311Z" stroke="rgb(0, 0, 0)" stroke-width="8" fill="rgb(0, 0, 0)" style="transform:matrix(0.0255,0,0,-0.0255,0,0);"></path></g></g></g></g></svg>