<svg xmlns="http://www.w3.org/2000/svg" width="17.77500057220459" height="24" style="width:17.77500057220459px;height:24px;font-family:Asana-Math, Asana;background:transparent;"><g><g><g><g><g><g style="transform:matrix(1,0,0,1,2,19);"><path d="M579 -3L579 27L533 30C499 32 496 39 496 102L496 718L487 726C443 709 410 701 331 689L331 661L387 661C405 661 412 650 412 620L412 437C384 472 346 486 306 486C183 486 34 351 34 229C34 149 62 70 111 30C145 1 192 -12 257 -12C277 -12 300 -8 305 -4L416 89L411 -3C460 -1 476 0 488 0C506 0 570 -3 579 -3ZM412 350L412 221C412 156 410 146 397 123C369 76 320 45 273 45C185 45 122 130 122 249C122 358 176 422 266 422C345 422 412 366 412 350Z" stroke="rgb(0, 0, 0)" stroke-width="8" fill="rgb(0, 0, 0)" style="transform:matrix(0.017,0,0,-0.017,0,0);"></path></g></g></g></g></g></g></svg>