<svg xmlns="http://www.w3.org/2000/svg" width="13.574999809265137" height="24" style="width:13.574999809265137px;height:24px;font-family:Asana-Math, Asana;background:transparent;"><g><g><g style="transform:matrix(1,0,0,1,2,19);"><path d="M265 678C428 757 519 670 457 444C449 415 441 392 423 342C348 437 260 434 170 360C116 316 78 255 62 193C5 -21 254 -65 365 80C419 150 491 279 521 395C587 650 466 820 242 731ZM409 308C365 197 342 156 308 104C240 -1 84 -24 135 163C165 277 252 367 327 367C362 367 385 347 409 308Z" stroke="rgb(0, 0, 0)" stroke-width="8" fill="rgb(0, 0, 0)" style="transform:matrix(0.017,0,0,-0.017,0,0);"></path></g></g></g></svg>