<svg xmlns="http://www.w3.org/2000/svg" width="23.587499618530273" height="39.20000076293945" style="width:23.587499618530273px;height:39.20000076293945px;font-family:Asana-Math, Asana;background:transparent;"><g><g><g><g style="transform:matrix(1,0,0,1,2,29.899993896484375);"><path d="M694 802C694 860 621 885 573 885C378 885 345 605 335 450C213 431 120 327 120 200C120 83 199 -16 306 -46C306 -66 305 -87 304 -108C302 -191 312 -410 184 -410C173 -410 159 -407 151 -397C153 -392 155 -384 155 -378C155 -347 114 -315 83 -315C59 -315 54 -340 54 -359C54 -418 125 -442 173 -442C348 -442 382 -190 397 -59L397 -53C526 -41 627 67 627 200C627 319 545 419 436 446C440 548 428 853 562 853C574 853 587 850 596 841C593 834 592 828 592 821C592 789 633 759 663 759C687 759 694 782 694 802ZM575 200C575 99 500 14 403 1C416 131 423 262 432 392C515 367 575 290 575 200ZM332 397C323 267 315 139 309 9C229 37 173 111 173 200C173 297 241 377 332 397Z" stroke="rgb(0, 0, 0)" stroke-width="8" fill="rgb(0, 0, 0)" style="transform:matrix(0.0255,0,0,-0.0255,0,0);"></path></g></g></g></g></svg>