<svg xmlns="http://www.w3.org/2000/svg" width="32.86250114440918" height="39.20000076293945" style="width:32.86250114440918px;height:39.20000076293945px;font-family:Asana-Math, Asana;background:transparent;"><g><g><g><g style="transform:matrix(1,0,0,1,2,29.899993896484375);"><path d="M1058 802C1058 860 985 885 937 885C733 885 708 579 698 430C687 251 673 72 668 -108C665 -191 676 -410 548 -410C537 -410 523 -407 515 -397C517 -392 519 -384 519 -378C519 -347 478 -315 447 -315C423 -315 418 -340 418 -359C418 -418 489 -442 537 -442C713 -442 744 -190 759 -59C777 104 785 269 797 433C803 521 786 853 926 853C938 853 952 850 960 841C957 834 956 828 956 821C956 789 997 759 1027 759C1052 759 1058 782 1058 802ZM694 802C694 860 621 885 573 885C368 885 344 579 334 430C323 251 309 72 304 -108C301 -191 312 -410 184 -410C173 -410 159 -407 151 -397C153 -392 155 -384 155 -378C155 -347 114 -315 83 -315C59 -315 54 -340 54 -359C54 -418 125 -442 173 -442C348 -442 380 -190 395 -59C413 104 421 269 433 433C439 521 422 853 562 853C574 853 587 850 596 841C593 834 592 828 592 821C592 789 633 759 663 759C687 759 694 782 694 802Z" stroke="rgb(0, 0, 0)" stroke-width="8" fill="rgb(0, 0, 0)" style="transform:matrix(0.0255,0,0,-0.0255,0,0);"></path></g></g></g></g></svg>