<svg xmlns="http://www.w3.org/2000/svg" width="32.86250114440918" height="39.20000076293945" style="width:32.86250114440918px;height:39.20000076293945px;font-family:Asana-Math, Asana;background:transparent;"><g><g><g><g style="transform:matrix(1,0,0,1,2,29.899993896484375);"><path d="M1058 802C1058 860 985 885 937 885C743 885 709 608 699 453L436 453C439 563 432 853 562 853C574 853 587 850 596 841C593 834 592 828 592 821C592 789 633 759 663 759C687 759 694 782 694 802C694 860 621 885 573 885C376 885 345 601 335 447C221 422 137 321 137 200C137 89 207 -6 307 -40L304 -108C302 -191 312 -410 184 -410C173 -410 159 -407 151 -397C153 -392 155 -384 155 -378C155 -347 114 -315 83 -315C59 -315 54 -340 54 -359C54 -418 125 -442 173 -442C348 -442 382 -190 397 -59L397 -54L671 -54C661 -141 691 -410 548 -410C537 -410 523 -407 515 -397C517 -392 519 -384 519 -378C519 -347 478 -315 447 -315C423 -315 418 -340 418 -359C418 -418 489 -442 537 -442C716 -442 748 -180 762 -50C880 -29 971 76 971 200C971 311 899 405 800 440C804 536 789 853 926 853C938 853 952 850 959 841C957 834 956 828 956 821C956 789 997 759 1027 759C1052 759 1058 782 1058 802ZM918 200C918 106 854 28 767 5C780 131 787 258 796 385C867 354 918 283 918 200ZM696 401C687 267 679 132 673 -1L403 -1C416 132 423 267 433 401ZM332 392C323 266 315 141 309 16C239 47 189 118 189 200C189 290 249 366 332 392Z" stroke="rgb(0, 0, 0)" stroke-width="8" fill="rgb(0, 0, 0)" style="transform:matrix(0.0255,0,0,-0.0255,0,0);"></path></g></g></g></g></svg>