<svg width="140" height="42" viewBox="0 0 140 42" fill="none" xmlns="http://www.w3.org/2000/svg">
<path d="M75.9743 30.0101V33.4414H59.095V8.83299H75.6624V12.2643H62.9769V19.2656H73.9641V22.4889H62.9769V30.0101H75.9743ZM83.8892 33.788C81.9945 33.788 80.5619 33.1757 79.5914 31.951C78.6209 30.7033 78.1357 28.8548 78.1357 26.4055V15.3144H81.9483V25.643C81.9483 28.901 83.1036 30.53 85.4142 30.53C86.5002 30.53 87.5285 30.1949 88.499 29.5249C89.4694 28.8548 90.2204 27.8843 90.7518 26.6134V15.3144H94.5644V28.9356C94.5644 29.3747 94.6337 29.6866 94.7724 29.8715C94.9341 30.0563 95.2114 30.1603 95.6042 30.1834V33.4414C95.2114 33.5107 94.8879 33.5569 94.6337 33.58C94.3796 33.6032 94.1369 33.6147 93.9059 33.6147C93.2127 33.6147 92.6235 33.4299 92.1382 33.0601C91.653 32.6673 91.3988 32.1705 91.3757 31.5698L91.3064 29.7675C90.4977 31.0845 89.4463 32.0897 88.1524 32.7829C86.8584 33.453 85.4374 33.788 83.8892 33.788ZM98.9229 8.1398H102.735V28.2078C102.735 28.8779 102.909 29.4093 103.255 29.8021C103.602 30.1718 104.087 30.3567 104.711 30.3567C104.965 30.3567 105.254 30.3105 105.578 30.2181C105.924 30.1256 106.248 30.0216 106.548 29.9061L107.103 32.8869C106.548 33.141 105.889 33.3374 105.127 33.4761C104.364 33.6378 103.683 33.7187 103.082 33.7187C101.765 33.7187 100.737 33.3605 99.9973 32.6442C99.281 31.9279 98.9229 30.9112 98.9229 29.5942V8.1398ZM116.986 33.788C115.577 33.788 114.294 33.5454 113.139 33.0601C111.983 32.5518 110.99 31.8702 110.158 31.0152C109.349 30.1603 108.714 29.1667 108.252 28.0345C107.813 26.9023 107.593 25.7007 107.593 24.4299C107.593 23.159 107.813 21.9575 108.252 20.8253C108.714 19.6699 109.349 18.6648 110.158 17.8099C110.99 16.9318 111.983 16.2502 113.139 15.7649C114.294 15.2566 115.588 15.0024 117.021 15.0024C118.43 15.0024 119.701 15.2566 120.833 15.7649C121.989 16.2733 122.971 16.9549 123.779 17.8099C124.588 18.6417 125.2 19.6237 125.616 20.7559C126.055 21.8651 126.275 23.0319 126.275 24.2566C126.275 24.5339 126.263 24.7996 126.24 25.0537C126.217 25.2848 126.194 25.4812 126.171 25.643H111.648C111.718 26.4517 111.903 27.1795 112.203 27.8265C112.526 28.4735 112.931 29.0396 113.416 29.5249C113.924 29.987 114.491 30.3451 115.114 30.5993C115.761 30.8535 116.431 30.9806 117.125 30.9806C117.633 30.9806 118.13 30.9228 118.615 30.8073C119.123 30.6686 119.585 30.4838 120.001 30.2527C120.417 29.9985 120.787 29.6982 121.111 29.3516C121.434 29.005 121.688 28.6237 121.873 28.2078L125.131 29.1436C124.507 30.5069 123.467 31.6275 122.012 32.5056C120.579 33.3605 118.904 33.788 116.986 33.788ZM122.497 23.0088C122.428 22.2463 122.231 21.5416 121.908 20.8946C121.607 20.2476 121.215 19.7046 120.729 19.2656C120.244 18.8034 119.678 18.4453 119.031 18.1911C118.384 17.9369 117.702 17.8099 116.986 17.8099C116.27 17.8099 115.588 17.9369 114.941 18.1911C114.317 18.4453 113.763 18.8034 113.277 19.2656C112.792 19.7046 112.399 20.2476 112.099 20.8946C111.799 21.5416 111.614 22.2463 111.544 23.0088H122.497ZM139.033 18.607C137.554 18.6532 136.237 18.9998 135.082 19.6468C133.95 20.2707 133.141 21.1719 132.656 22.3503V33.4414H128.843V15.3144H132.378V19.3696C133.002 18.1218 133.811 17.1282 134.805 16.3888C135.821 15.6263 136.907 15.2104 138.063 15.1411C138.294 15.1411 138.479 15.1411 138.617 15.1411C138.779 15.1411 138.918 15.1526 139.033 15.1757V18.607Z" fill="#263238"/>
<rect y="0.441406" width="41.1584" height="41.1584" rx="11.5532" fill="url(#paint0_linear)"/>
<path d="M23.4075 11.2487C23.5077 11.2492 23.6084 11.2418 23.7072 11.2519C23.7607 11.2575 23.8115 11.2926 23.8632 11.3147C23.823 11.3554 23.7866 11.4011 23.7418 11.4352C23.7016 11.4662 23.6522 11.4846 23.6065 11.5086C23.6564 11.5345 23.7044 11.5645 23.7566 11.5857C23.9542 11.667 24.155 11.7409 24.3498 11.8286C24.3965 11.8494 24.4228 11.9145 24.4583 11.9588C24.4038 11.9948 24.3489 12.0622 24.2958 12.0604C24.0977 12.0539 23.9001 12.023 23.7021 12.0054C23.6458 12.0003 23.588 12.0114 23.5313 12.0151C23.5737 12.053 23.6102 12.1028 23.6591 12.1268C23.7972 12.1938 23.944 12.2427 24.0807 12.3129C24.1818 12.3651 24.3628 12.3614 24.2986 12.5687C24.2953 12.5788 24.4542 12.6786 24.4966 12.6569C24.7109 12.5465 24.9168 12.4163 25.1121 12.2755C25.1485 12.2492 25.125 12.1402 25.1292 12.0696C25.0844 12.1038 25.0396 12.1375 24.9953 12.1721C24.9893 12.1767 24.9865 12.1855 24.9805 12.1896C24.872 12.2603 24.7635 12.3309 24.655 12.4015C24.7109 12.2981 24.7815 12.1998 24.8198 12.0904C24.8882 11.8951 24.9362 11.6924 24.9948 11.4939C25.011 11.4399 25.0354 11.3881 25.0562 11.3355C25.0978 11.3604 25.1675 11.3775 25.1772 11.4112C25.2547 11.6878 25.3397 11.9643 25.3817 12.2469C25.4006 12.3738 25.4426 12.5714 25.1467 12.5442C25.0322 12.5336 24.9048 12.7704 24.7672 12.8734C24.6762 12.9413 24.558 12.9736 24.4509 13.0188C24.4131 13.0345 24.3706 13.041 24.3304 13.0511C24.3586 13.083 24.3808 13.1246 24.4154 13.1444C24.5548 13.2252 24.6924 13.3189 24.8434 13.366C24.8937 13.3817 24.9907 13.2806 25.053 13.2192C25.1569 13.1167 25.2446 12.998 25.3512 12.8992C25.3752 12.8766 25.4482 12.9066 25.4985 12.9126C25.4911 12.9597 25.4971 13.0151 25.474 13.053C25.4112 13.1583 25.3332 13.2543 25.2667 13.3577C25.0825 13.643 24.7727 13.7478 24.4514 13.6292C24.408 13.613 24.3664 13.589 24.3217 13.5821C24.2806 13.5752 24.2367 13.5858 24.1938 13.589C24.2076 13.6223 24.2238 13.655 24.2349 13.6892C24.2524 13.7432 24.2663 13.7986 24.2815 13.8531C24.1499 13.8734 24.1388 14.1537 23.9389 14.0179C23.8447 13.9542 23.7658 13.8683 23.6767 13.7963C23.6411 13.7672 23.5973 13.7488 23.5571 13.7252C23.5705 13.7728 23.5728 13.8277 23.5987 13.8674C23.6938 14.0142 23.8106 14.1486 23.8914 14.3023C23.944 14.4025 23.9777 14.5165 23.7649 14.5193C23.553 14.5221 23.5077 14.6777 23.5262 14.8744C23.571 15.3536 23.878 15.602 24.257 15.8079C24.3046 15.8337 24.3369 15.8873 24.3761 15.9279C24.3203 15.9413 24.2566 15.9792 24.2099 15.9639C24.0585 15.9155 23.914 15.8467 23.7658 15.7876C23.7219 15.77 23.6762 15.7576 23.6314 15.7432C23.6361 15.7945 23.6296 15.8504 23.6485 15.8961C23.6776 15.9662 23.7344 16.0253 23.7603 16.0964C23.7773 16.1431 23.7607 16.2022 23.7593 16.2557C23.703 16.2488 23.6121 16.2613 23.5964 16.2322C23.5137 16.0817 23.4495 15.9205 23.3803 15.7631C23.366 15.7303 23.3554 15.6962 23.3429 15.6625C23.3207 15.6957 23.281 15.728 23.2787 15.7626C23.2653 15.9672 23.2639 16.1643 23.5059 16.2603C23.8041 16.379 24.1033 16.4981 24.3877 16.6449C24.492 16.6985 24.6241 16.8319 24.6231 16.9275C24.6213 17.1117 24.45 17.1325 24.2824 17.1357C23.8457 17.144 23.5169 16.9483 23.2413 16.6306C23.2062 16.59 23.1485 16.5683 23.1014 16.5378C23.0991 16.602 23.0723 16.6786 23.0977 16.7285C23.2972 17.1205 23.6148 17.3818 24.046 17.4616C24.167 17.4838 24.311 17.3767 24.4454 17.3324C24.499 17.3148 24.5557 17.3056 24.6107 17.2927C24.6079 17.3476 24.6236 17.4136 24.5987 17.4556C24.4556 17.7008 24.6758 17.6837 24.781 17.6763C24.9219 17.6662 25.0548 17.578 25.1966 17.5512C25.3069 17.5304 25.4269 17.5411 25.5405 17.5558C25.8152 17.5923 26.0881 17.6445 26.3628 17.68C26.4921 17.6966 26.6375 17.6279 26.7229 17.8024C26.7441 17.8462 26.8549 17.8605 26.9237 17.8592C26.9477 17.8587 26.9653 17.7673 26.9953 17.7239C27.023 17.6837 27.0655 17.6542 27.0983 17.6172C27.1887 17.5161 27.2815 17.4169 27.3646 17.3098C27.3905 17.2765 27.3882 17.2211 27.3993 17.1759C27.4394 17.2082 27.5004 17.2327 27.5156 17.2742C27.6246 17.5734 27.734 17.873 27.8222 18.1791C27.8587 18.3056 27.9016 18.4921 27.8393 18.5729C27.7017 18.7521 27.5147 18.9104 27.3152 19.0152C27.2534 19.0475 27.0803 18.8869 26.9685 18.801C26.6453 18.5517 26.3032 18.3767 25.8886 18.2941C25.4542 18.2077 25.0419 18.0106 24.6176 17.8679C24.5636 17.8499 24.4948 17.8809 24.4352 17.8726C24.2963 17.8527 24.1527 17.8393 24.0216 17.7931C23.8152 17.7202 23.6176 17.6219 23.4149 17.5374C23.3992 17.5309 23.3692 17.5424 23.353 17.5549C23.0446 17.795 23.1231 18.4021 23.4832 18.5909C23.8364 18.7761 24.2025 18.7936 24.5797 18.6856C24.6167 18.675 24.6532 18.6477 24.6882 18.6505C24.7506 18.6551 24.8115 18.6764 24.8734 18.6902C24.8369 18.7396 24.8106 18.8125 24.7621 18.8338C24.6291 18.8915 24.4865 18.9266 24.348 18.9714C24.3203 18.9801 24.293 18.9917 24.2658 19.0018C24.2875 19.0277 24.3092 19.0535 24.3309 19.0799C24.4348 19.2059 24.5525 19.2161 24.697 19.1445C24.7547 19.1159 24.8337 19.1307 24.9029 19.1256C24.8701 19.1957 24.8406 19.2678 24.8027 19.3347C24.7889 19.3592 24.7547 19.3721 24.7316 19.392C24.6869 19.4303 24.6435 19.47 24.5991 19.5088C24.6522 19.5351 24.7049 19.5808 24.7589 19.5822C24.8143 19.5836 24.8932 19.5582 24.9232 19.5162C25.0488 19.3426 25.155 19.1551 25.2801 18.9815C25.3124 18.9367 25.3872 18.9224 25.4426 18.8943C25.4519 18.9571 25.4787 19.0235 25.4653 19.0813C25.4482 19.1537 25.3951 19.2165 25.3637 19.2862C25.3425 19.3343 25.3323 19.3869 25.3171 19.4372C25.372 19.4146 25.444 19.4058 25.4777 19.3657C25.535 19.2964 25.5567 19.1971 25.6158 19.1297C25.6578 19.0822 25.7363 19.0665 25.7981 19.0365C25.8074 19.1048 25.8429 19.1833 25.8212 19.2396C25.7718 19.3675 25.6869 19.482 25.6342 19.609C25.6204 19.6422 25.6619 19.7336 25.6952 19.7438C25.7935 19.7747 25.9094 19.8116 26.0022 19.7872C26.36 19.6925 26.4722 20.006 26.6199 20.1898C26.6874 20.2738 26.5692 20.512 26.5253 20.6773C26.5124 20.7262 26.4648 20.766 26.4334 20.8103C26.505 20.819 26.5765 20.8324 26.6481 20.8338C26.6754 20.8343 26.7021 20.7978 26.7303 20.7964C26.7889 20.7937 26.8485 20.8024 26.9076 20.807C26.8826 20.8675 26.8743 20.952 26.8291 20.9848C26.6047 21.1468 26.3683 21.2927 26.1398 21.4497C25.957 21.5753 25.9657 21.6455 26.162 21.7581C26.2178 21.79 26.2658 21.8361 26.3175 21.8758C26.2598 21.9179 26.2058 21.9673 26.143 22C25.9062 22.1242 25.6643 22.2392 25.4302 22.3685C25.3914 22.3902 25.3503 22.4904 25.366 22.5116C25.3997 22.5559 25.4814 22.6072 25.5253 22.5942C26.1647 22.4003 26.7755 22.151 27.1555 21.5541C27.3314 21.2775 27.5225 21.0009 27.638 20.6981C27.7474 20.4114 27.8028 20.0914 27.8093 19.7849C27.8125 19.639 27.6532 19.4843 27.5539 19.3435C27.4616 19.2133 27.367 19.1043 27.6329 19.0891C27.6814 19.0863 27.7469 19.0609 27.7732 19.0235C28.27 18.3218 28.4372 17.3564 27.5964 16.7594C27.4847 16.68 27.3129 16.6791 27.167 16.6569C27.0475 16.6389 26.9113 16.6768 26.8051 16.6334C26.2958 16.4252 25.7774 16.373 25.2349 16.4593C25.0654 16.4861 24.8803 16.469 24.7123 16.4298C24.6347 16.4118 24.5802 16.2931 24.5156 16.2206C24.5871 16.1828 24.6559 16.1361 24.7316 16.1084C24.8503 16.0655 25.005 16.0692 25.0895 15.9926C25.3088 15.794 25.4967 15.5613 25.7012 15.3457C25.7492 15.2949 25.812 15.258 25.8679 15.2151C25.8859 15.2839 25.908 15.3517 25.9196 15.421C25.9242 15.4487 25.9053 15.4801 25.9002 15.5106C25.8882 15.5835 25.8785 15.6569 25.8679 15.7303C25.9343 15.6952 25.9999 15.6592 26.0673 15.626C26.1079 15.6057 26.185 15.5697 26.1878 15.5747C26.3185 15.7959 26.5211 15.5572 26.5673 15.5941C26.7557 15.7469 27.0724 15.6666 27.1864 15.957C27.2151 16.0304 27.3827 16.065 27.4916 16.0803C27.5235 16.0849 27.6153 15.9542 27.607 15.8961C27.5743 15.6638 27.5105 15.4362 27.4648 15.2054C27.4533 15.1463 27.4658 15.0821 27.4676 15.0207C27.5129 15.0563 27.5696 15.0835 27.6006 15.1287C27.8425 15.4815 28.0009 15.8407 27.8411 16.2927C27.7936 16.427 27.8545 16.6731 27.9575 16.7751C28.5914 17.4016 28.6043 18.2377 28.1454 18.9677C27.9976 19.2027 27.9598 19.4003 28.0743 19.6731C28.2668 20.1311 28.1181 20.5776 27.8979 20.9963C27.752 21.2733 27.595 21.5444 27.4399 21.8168C27.4099 21.8698 27.3767 21.9299 27.3286 21.9622C26.8725 22.2678 26.4417 22.6349 25.945 22.8472C25.5867 23.0005 25.1402 22.9622 24.7321 22.9779C24.4519 22.9885 24.2298 23.0656 24.1107 23.3269C24.0174 23.531 24.1347 24.0245 24.2861 24.176C24.9426 24.8334 25.589 25.501 26.2571 26.1465C26.4565 26.339 26.6934 26.5232 26.9477 26.6234C27.71 26.9235 28.3319 27.4143 28.9224 27.9595C29.0295 28.0583 29.1426 28.1507 29.253 28.2458C29.3827 28.3579 29.4556 28.4909 29.3421 28.6474C29.2299 28.8021 29.0794 28.791 28.9358 28.6894C28.8356 28.6188 28.7469 28.5325 28.6505 28.4558C28.2192 28.1119 27.7876 27.7679 27.3536 27.4272C27.3139 27.3958 27.2566 27.3861 27.2072 27.3681C27.0373 27.3058 26.8633 27.2536 26.6994 27.1783C26.589 27.1276 26.4879 26.9789 26.3933 26.9881C26.179 27.0089 25.9708 27.0985 25.7626 27.1673C25.7511 27.1709 25.7497 27.2407 25.7612 27.2734C25.9708 27.8487 25.7852 28.3732 25.5627 28.8967C25.2912 29.5362 25.1121 30.1936 25.0885 30.8982C25.0774 31.2278 24.9394 31.5519 24.8771 31.882C24.8318 32.1216 24.8101 32.3659 24.7903 32.6092C24.7806 32.7274 24.7732 32.8086 24.6185 32.7564C24.2072 32.6179 23.8692 32.7606 23.5617 33.0358C23.4555 33.1304 23.3327 33.2168 23.2025 33.2698C23.1351 33.2971 23.0317 33.2523 22.9505 33.2237C22.7524 33.1549 22.5617 33.057 22.359 33.009C22.2344 32.9794 22.2062 32.9522 22.2413 32.8322C22.3332 32.5164 22.4144 32.1973 22.5008 31.8797C22.5068 31.858 22.5132 31.8266 22.5289 31.8188C22.7681 31.6969 22.7094 31.5598 22.5894 31.3742C22.5488 31.3109 22.619 31.1429 22.6817 31.0524C22.9551 30.6585 22.9532 30.5981 22.6513 30.2139C22.618 30.1715 22.6522 30.0071 22.6993 29.9817C23.0608 29.7878 23.1079 29.4314 23.1467 29.0939C23.1638 28.9484 23.0839 28.7388 22.9745 28.6423C22.6896 28.3921 22.3789 28.1613 22.0483 27.9757C21.8429 27.8598 21.5871 27.8607 21.3775 28.0426C21.3424 28.0731 21.2861 28.0791 21.2394 28.0962C21.2394 28.038 21.2233 27.9743 21.2417 27.9226C21.3627 27.586 21.2718 27.4138 20.9209 27.297C20.7934 27.2545 20.6743 27.1843 20.5571 27.1165C20.5312 27.1017 20.5312 27.0421 20.5192 27.0034C20.5552 26.9964 20.5949 26.9761 20.6263 26.9849C21.1397 27.1271 21.7002 27.1054 22.1033 27.5842C22.3272 27.8506 22.6785 28.0131 22.9818 28.2074C23.1804 28.3349 23.3383 28.2545 23.3886 28.0255C23.5682 27.2014 23.7903 26.3833 23.9117 25.5509C23.9772 25.0994 23.8803 24.6224 23.8387 24.1584C23.8175 23.9174 23.7621 23.6787 23.7127 23.441C23.6975 23.3671 23.6508 23.2992 23.619 23.2291C23.5797 23.2858 23.5229 23.3371 23.504 23.3999C23.3438 23.9377 23.0894 24.4221 22.7279 24.8542C22.588 25.0213 22.4897 25.2226 22.3636 25.4022C21.9292 26.0209 21.3318 26.4239 20.6346 26.6908C20.5861 26.7093 20.5261 26.7176 20.4758 26.7079C20.4209 26.6973 20.371 26.6603 20.3188 26.6349C20.347 26.5851 20.3627 26.5181 20.4052 26.4886C20.6194 26.339 20.853 26.2148 21.0571 26.0532C21.9343 25.3584 22.7787 24.6294 23.1771 23.5356C23.2312 23.387 23.2205 23.1889 23.1721 23.0351C23.1176 22.862 22.872 22.868 22.7238 22.9668C22.3156 23.2392 21.8923 23.489 21.4726 23.7443C21.3821 23.7997 21.2819 23.8389 21.1877 23.8888C20.9273 24.0264 20.6919 24.1871 20.3742 24.2323C20.1388 24.266 19.9296 24.4858 19.7085 24.621C19.6337 24.6668 19.5617 24.7286 19.4799 24.7489C19.1715 24.8251 19.1083 24.9982 19.311 25.2452C19.3401 25.2808 19.3751 25.3117 19.4098 25.3413C19.6295 25.5283 19.6443 25.6792 19.3922 25.7979C19.1609 25.9068 19.1946 26.1423 19.0626 26.2882C19.0515 26.3002 19.0741 26.3704 19.0963 26.3805C19.3156 26.4816 19.5386 26.5744 19.7593 26.6723C19.8174 26.6982 19.8719 26.7328 19.9282 26.7637C19.8659 26.7924 19.7944 26.857 19.7426 26.8436C19.4102 26.7573 19.0492 26.7102 18.7606 26.5421C18.3548 26.3053 18.0104 25.9655 17.6267 25.6875C17.4457 25.5564 17.2449 25.4313 17.0339 25.3671C16.7629 25.2845 16.5639 25.4572 16.6073 25.7388C16.6526 26.0315 16.7467 26.3196 16.8451 26.6012C17.0275 27.1234 17.2177 27.6428 17.425 28.1553C17.5473 28.4577 17.6507 28.4651 17.8968 28.2388C18.1771 27.9807 18.4578 27.7231 18.7408 27.4678C18.7796 27.4332 18.8308 27.4009 18.8807 27.3921C19.1831 27.339 19.4864 27.2878 19.7907 27.2467C19.9047 27.2314 20.0266 27.2351 19.9305 27.418C19.9121 27.4535 19.9596 27.5223 19.9726 27.5763C19.9956 27.6723 20.0437 27.7735 20.0298 27.8644C20.0141 27.9678 19.9301 28.1502 19.8955 28.1456C19.7606 28.128 19.6263 28.062 19.5067 27.9895C19.4476 27.954 19.4144 27.8686 19.3793 27.8007C19.2473 27.5445 19.0981 27.496 18.8774 27.6917C18.6438 27.8986 18.4425 28.1419 18.2274 28.3695C18.1955 28.4032 18.1669 28.4392 18.1327 28.4706C18.0446 28.5514 17.8696 28.6451 17.8807 28.7065C17.9171 28.9101 18.0085 29.1073 18.1018 29.2956C18.1748 29.4425 18.2939 29.5662 18.3728 29.7107C18.6669 30.2481 18.9582 30.7873 19.2403 31.3308C19.4125 31.6622 19.5718 32.0007 19.726 32.3414C19.8715 32.6627 19.8271 32.9873 19.6942 33.3003C19.6692 33.3589 19.5718 33.4347 19.5238 33.4245C19.4564 33.4111 19.3955 33.3308 19.347 33.2675C19.3003 33.2061 19.2726 33.13 19.2371 33.0602C19.1951 33.1129 19.1605 33.1747 19.1092 33.2158C19.0607 33.2546 18.985 33.3054 18.9384 33.2925C18.5067 33.1697 18.0727 33.081 17.7112 32.7578C17.382 32.4637 16.967 32.268 16.6115 32.0002C16.4028 31.8428 16.1946 31.6553 16.0593 31.436C15.8465 31.0911 15.6895 30.7112 15.52 30.3409C15.2629 29.7781 14.9499 29.2832 14.2846 29.134C14.2158 29.1188 14.1447 28.9983 14.1221 28.9138C14.0602 28.6844 14.0334 28.4452 13.9752 28.2144C13.7356 27.2614 13.2061 26.6003 12.177 26.4466C12.0486 26.4272 11.924 26.3815 11.7965 26.3528C11.6377 26.3173 11.5989 26.2148 11.6017 26.0634C11.6045 25.9082 11.6433 25.8154 11.8076 25.754C12.5274 25.4862 13.2393 25.1977 13.9563 24.9235C14.2638 24.8057 14.5745 24.6935 14.8894 24.597C15.5653 24.3902 15.7486 23.9359 15.4453 23.2983C15.1128 22.5993 14.8294 21.8772 14.4974 21.1778C14.4032 20.9788 14.2172 20.8223 14.0653 20.6533C14.0426 20.6284 13.9563 20.6219 13.9332 20.6436C13.7749 20.789 13.6502 20.681 13.5957 20.5628C13.4457 20.2387 13.3279 19.8994 13.201 19.5646C13.1802 19.5097 13.1964 19.4137 13.1627 19.3947C12.9184 19.2572 13.0232 19.0586 13.0459 18.8656C13.0602 18.7428 13.0329 18.6159 13.032 18.4908C13.0311 18.385 13.0408 18.2788 13.0472 18.1731C13.0763 17.7054 13.2241 17.2054 13.1073 16.7774C12.9494 16.1989 13.2942 15.8758 13.4969 15.4579C13.6087 15.2275 13.6747 14.9732 13.7467 14.7252C13.8506 14.367 13.9337 14.0031 14.0403 13.6458C14.0994 13.4477 14.1756 13.252 14.267 13.0664C14.4526 12.6896 14.6419 12.3138 14.852 11.9505C14.9965 11.7002 15.1802 11.4726 15.3409 11.2307C15.3681 11.1901 15.3677 11.1305 15.3792 11.0797C15.3982 10.998 15.3908 10.8946 15.4388 10.8383C15.7814 10.438 15.8617 9.85442 16.3326 9.54878C16.4365 9.48137 16.5718 9.46337 16.689 9.41397C16.7989 9.36733 16.9162 9.32532 17.0085 9.25284C17.2241 9.08386 17.4517 9.04369 17.7209 9.08478C17.8977 9.11202 18.0856 9.05523 18.268 9.05847C18.6637 9.06585 19.0584 9.09402 19.4541 9.10002C19.5811 9.10186 19.7246 9.09309 19.8327 9.0363C20.1679 8.85948 20.5054 9.08247 20.8318 9.00768C21.1143 8.94258 21.3853 8.82762 21.6674 8.75791C21.7796 8.73021 21.9098 8.75375 22.0271 8.77684C22.0612 8.78376 22.0797 8.8701 22.1056 8.91996C22.0617 8.93196 22.0178 8.94397 21.974 8.95597C21.9384 8.96567 21.8733 8.97167 21.8715 8.98552C21.8438 9.19697 21.69 9.16927 21.5414 9.18127C21.4144 9.19143 21.2658 9.20436 21.1706 9.275C20.943 9.44397 20.6471 9.52385 20.4499 9.41212C20.2159 9.27915 20.0414 9.37565 19.8378 9.37795C19.293 9.38396 18.7449 9.33825 18.2034 9.37749C17.8516 9.40288 17.4319 9.48091 17.3363 9.89689C17.286 10.1162 17.4305 10.3803 17.4919 10.6231C17.4951 10.6361 17.5413 10.6379 17.5676 10.6453C17.5672 10.618 17.5727 10.589 17.5653 10.564C17.4822 10.2981 17.5302 10.2547 17.8151 10.2963C17.889 10.3069 17.9735 10.2372 18.0542 10.2085C18.1637 10.1697 18.28 10.0926 18.383 10.1065C18.6018 10.137 18.6697 10.317 18.5399 10.4971C18.4485 10.6236 18.4601 10.7067 18.612 10.7173C18.8659 10.7349 19.1374 10.8775 19.3678 10.6411C19.383 10.6254 19.4084 10.6116 19.4292 10.6111C19.943 10.6019 20.1194 10.2145 20.3096 9.83595C20.3641 9.72791 20.4439 9.63142 20.5224 9.53816C20.5427 9.51369 20.6014 9.52154 20.642 9.51461C20.6392 9.55524 20.648 9.60187 20.6309 9.63558C20.552 9.79209 20.4606 9.9426 20.3853 10.101C20.3613 10.1517 20.3719 10.2191 20.3668 10.2787C20.4061 10.2372 20.4532 10.2002 20.4837 10.1527C20.5755 10.0105 20.6531 9.85903 20.7528 9.72283C20.7888 9.6739 20.8719 9.65958 20.9333 9.62911C20.9338 9.69698 20.9435 9.76623 20.9315 9.83179C20.9241 9.87381 20.8821 9.90889 20.8613 9.94952C20.8341 10.0031 20.8128 10.0599 20.7888 10.1153C20.8378 10.0922 20.8844 10.0613 20.9361 10.0479C20.9827 10.0354 21.0344 10.0414 21.0838 10.0391C21.0866 10.1028 21.0954 10.167 21.0898 10.2298C21.0852 10.2806 21.0635 10.3295 21.0492 10.3794C21.0982 10.354 21.1476 10.33 21.1956 10.3032C21.2625 10.2658 21.3267 10.2224 21.3955 10.1887C21.5585 10.1097 21.6762 10.137 21.661 10.3438C21.6485 10.51 21.7011 10.4777 21.8087 10.4264C22.0756 10.2995 22.3396 10.1416 22.6227 10.0843C22.7842 10.0516 22.9809 10.1928 23.1619 10.2556C23.1199 10.3161 23.0917 10.408 23.0345 10.4324C22.727 10.5636 22.4094 10.6716 22.1009 10.8004C21.9772 10.8521 21.8673 10.9362 21.7519 11.0073C21.7353 11.0174 21.7256 11.0386 21.7127 11.0548C21.7367 11.0659 21.7625 11.0894 21.7852 11.0862C22.052 11.0511 22.3179 11.0128 22.5839 10.9717C22.6111 10.9675 22.6545 10.9449 22.6577 10.9255C22.7021 10.6614 22.9232 10.7487 23.0779 10.7201C23.1425 10.7081 23.2173 10.7538 23.2879 10.7736C23.2224 10.8096 23.1577 10.8752 23.0917 10.8771C22.8586 10.8826 23.0488 11.1171 22.9204 11.1711C22.9823 11.1979 23.0423 11.2399 23.107 11.2487C23.2058 11.2579 23.3073 11.2483 23.4075 11.2487ZM14.1405 15.3854C14.1655 15.3919 14.1908 15.3988 14.2158 15.4053C14.213 15.783 14.2813 15.8384 14.6465 15.7626C14.6982 15.752 14.7536 15.7539 14.8067 15.7589C15.1876 15.795 15.5681 15.8347 15.9494 15.8707C16.1055 15.8854 16.2721 15.9145 16.2652 15.6652C16.2643 15.6264 16.3215 15.5863 16.3515 15.547C16.3931 15.5932 16.4711 15.6398 16.4707 15.6851C16.4647 16.1329 16.4642 16.5826 16.4203 17.0277C16.4056 17.1796 16.2477 17.3125 16.2006 17.4677C15.9979 18.1339 15.8746 18.8282 15.4 19.3841C15.2306 19.5822 15.3575 19.8463 15.6202 19.9049C15.6941 19.9215 15.7795 19.9345 15.8345 19.9797C16.0852 20.1851 16.3552 20.1311 16.6438 20.0923C16.8936 20.0586 17.154 20.1039 17.4097 20.1117C17.515 20.115 17.6203 20.1122 17.7251 20.1094C17.7671 20.1085 17.828 20.0817 17.846 20.1002C17.871 20.126 17.8811 20.1911 17.8659 20.2249C17.8359 20.2918 17.7915 20.392 17.7394 20.4017C17.545 20.4372 17.3396 20.4774 17.148 20.4488C16.8488 20.4044 16.6863 20.4862 16.6526 20.7909C16.6359 20.9409 16.6558 21.0947 16.6618 21.247C16.665 21.3311 16.6937 21.4192 16.6747 21.4973C16.6595 21.561 16.5912 21.6118 16.5464 21.6686C16.503 21.621 16.4383 21.5804 16.4208 21.5245C16.3922 21.4312 16.3843 21.3287 16.3843 21.2304C16.3848 21.0767 16.2971 21.0453 16.196 21.1159C16.1018 21.1815 15.9702 21.296 15.9748 21.3828C15.9951 21.771 16.0902 21.8957 16.3358 21.8939C16.9148 21.8897 17.4933 21.8722 18.0718 21.8495C18.1577 21.8463 18.2583 21.8084 18.3234 21.753C18.5653 21.5471 18.9208 21.6436 19.0981 21.7692C19.1665 21.8177 19.1517 21.9839 19.1743 22.0965C19.0898 22.091 19.0053 22.0855 18.9208 22.0804C18.7879 22.0721 18.6535 22.0467 18.5229 22.0605C18.3105 22.0831 18.1023 22.1446 17.8899 22.1653C17.6013 22.194 17.3031 22.1649 17.0224 22.224C16.6027 22.3121 16.1941 22.4428 15.7827 22.2152C15.7112 22.1755 15.6498 22.1168 15.5838 22.067C15.6415 22.006 15.6876 21.9192 15.7583 21.8892C15.9139 21.8232 15.9323 21.7604 15.8395 21.6131C15.744 21.4617 15.6059 21.2627 15.6392 21.1196C15.7149 20.7918 15.5353 20.6048 15.3608 20.41C15.0353 20.0457 14.9974 19.6718 15.244 19.2516C15.3705 19.0355 15.484 18.8089 15.5754 18.5757C15.6493 18.3878 15.6687 18.1791 15.7357 17.9875C15.8008 17.801 15.9194 17.6306 15.9679 17.4413C15.9937 17.3398 15.9439 17.198 15.8825 17.1052C15.8617 17.0738 15.6493 17.1029 15.6105 17.1616C15.4369 17.4233 15.2393 17.4838 14.9656 17.325C14.9309 17.3047 14.8621 17.3439 14.809 17.3555C14.8307 17.4053 14.8432 17.4626 14.8765 17.5023C14.9037 17.5346 14.9679 17.5364 14.9942 17.5692C15.0464 17.6334 15.1304 17.7211 15.1161 17.7774C15.0939 17.8642 15.0145 17.9695 14.9337 18.0004C14.8086 18.048 14.6507 18.0124 14.5279 18.0632C14.4258 18.1052 14.2786 18.2216 14.2804 18.3028C14.2906 18.8065 14.3146 19.313 14.3801 19.8121C14.4138 20.0688 14.7098 20.2216 14.6738 20.5554C14.6479 20.7937 14.78 21.0568 14.8714 21.2974C14.9476 21.4986 15.0694 21.6829 15.1669 21.8768C15.2943 22.1302 15.424 22.3828 15.5413 22.6413C15.6752 22.9363 15.7366 23.2872 15.936 23.5241C16.2966 23.9521 16.7615 24.2826 17.3049 24.4585C17.5261 24.5301 17.7782 24.5836 18.0021 24.5509C18.5418 24.4715 19.0718 24.3283 19.6088 24.2258C20.1277 24.1266 20.5926 23.9137 21.0271 23.6196C21.0986 23.5712 21.1979 23.5647 21.2828 23.5347C21.4158 23.4876 21.5829 23.4728 21.6734 23.3823C22.0991 22.9557 22.6116 22.6016 22.8798 22.037C23.0899 21.5951 23.2455 21.1496 23.131 20.6339C23.0372 20.2124 23.0188 19.7729 22.9777 19.3407C22.9625 19.1801 23.0636 19.1556 23.1855 19.223C23.306 19.2895 23.4144 19.379 23.5363 19.4423C23.5807 19.4654 23.6485 19.4432 23.7053 19.4418C23.6753 19.3994 23.6518 19.35 23.6144 19.3153C23.4089 19.1233 23.1979 18.9363 22.9929 18.7433C22.914 18.669 22.9417 18.4095 22.7191 18.5932C22.7099 18.6011 22.6444 18.5688 22.6448 18.5554C22.6471 18.3407 22.5843 18.0835 22.6804 17.922C22.8069 17.71 22.889 17.4894 22.7953 17.246C22.7122 17.0309 22.6462 16.7945 22.6434 16.5669C22.6411 16.3587 22.7265 16.1477 22.7861 15.9418C22.8235 15.8125 22.8997 15.6938 22.9311 15.5636C22.9772 15.373 22.9657 15.1634 23.0386 14.9861C23.1379 14.7446 23.2122 14.5184 23.1291 14.258C23.1111 14.2021 23.1554 14.1278 23.1642 14.0613C23.1767 13.9625 23.2039 13.8591 23.1882 13.764C23.1444 13.5045 22.9994 13.2506 23.1822 12.987C23.2016 12.9593 23.1873 12.8988 23.1734 12.8586C22.9098 12.0821 22.7916 11.9172 22.0645 11.5599C21.8586 11.4588 21.5903 11.4906 21.3535 11.4445C21.2482 11.4242 21.0728 11.3757 21.0631 11.3175C21.0058 10.9777 20.751 11.0109 20.521 10.9934C20.3525 10.9805 20.178 11.0059 20.015 10.9726C19.6 10.8872 19.2292 10.9846 18.846 11.1439C18.6697 11.2173 18.4167 11.2035 18.2329 11.1361C18.0132 11.0548 17.8239 10.98 17.6013 11.0959C17.5584 11.1185 17.4878 11.1282 17.4476 11.1084C17.2541 11.0123 17.123 10.9334 16.8709 11.1056C16.69 11.2293 16.3889 11.2764 16.1406 11.3609C15.7818 11.4833 15.5487 11.6933 15.3866 12.0114C15.2869 12.2072 15.2052 12.4122 15.1064 12.6084C14.9554 12.9085 14.7527 13.1901 14.6511 13.5054C14.4522 14.1223 14.3077 14.7575 14.1405 15.3854ZM18.3105 31.7971C18.2906 31.8044 18.2712 31.8118 18.2514 31.8188C18.3063 31.9753 18.3534 32.1355 18.4204 32.2865C18.4379 32.3262 18.5159 32.3566 18.5663 32.3571C18.5893 32.3575 18.6397 32.2698 18.6323 32.2306C18.5972 32.0455 18.5926 31.8303 18.4901 31.6876C18.3585 31.5044 18.3105 31.3248 18.3146 31.1147C18.3179 30.9411 18.3299 30.7675 18.3234 30.5948C18.3211 30.5233 18.2929 30.4462 18.2569 30.3834C17.9411 29.8298 17.5995 29.2901 17.3082 28.7245C17.0168 28.1594 16.786 27.5629 16.5011 26.9941C16.4416 26.875 16.2611 26.8164 16.1359 26.73C16.093 26.8385 16.0482 26.9466 16.0085 27.056C15.9988 27.0832 16.0057 27.1169 16.0057 27.1479C16.0025 27.7084 16.0062 28.2688 15.9937 28.8293C15.9873 29.1193 16.0436 29.3437 16.3696 29.4217C16.4702 29.4457 16.5551 29.5283 16.6521 29.575C16.9522 29.7199 17.2565 29.8566 17.5533 30.0071C17.6138 30.0376 17.6697 30.1073 17.6951 30.1719C17.8331 30.5233 17.9605 30.8788 18.093 31.2324C18.1651 31.4217 18.2385 31.6092 18.3105 31.7971ZM15.2703 16.5724C15.3945 16.6648 15.6719 16.4778 15.5551 16.8065C15.5519 16.8148 15.5925 16.8518 15.6142 16.8531C15.6493 16.8555 15.6969 16.8513 15.72 16.8291C15.8982 16.6592 15.8474 16.4339 15.6156 16.3499C15.2555 16.2192 14.7633 16.4012 14.5856 16.734C14.5717 16.7603 14.5814 16.7996 14.5805 16.8328C14.6151 16.8268 14.6516 16.8264 14.6835 16.8139C14.8838 16.7331 15.0837 16.6495 15.2703 16.5724ZM17.0422 9.61203C16.9674 9.66374 16.9268 9.7136 16.8797 9.72053C16.6096 9.76208 16.5625 9.93983 16.5787 10.1721C16.593 10.3784 16.5852 10.5899 16.7758 10.7302C16.8072 10.7533 16.8548 10.7547 16.895 10.7658C16.8977 10.7381 16.9106 10.7067 16.9019 10.6831C16.7772 10.3447 16.8617 10.0363 17.0293 9.73761C17.0441 9.71175 17.0367 9.67251 17.0422 9.61203ZM23.4371 20.7895C23.727 20.8038 23.8771 20.6782 23.8627 20.5046C23.854 20.4008 23.6619 20.3116 23.5525 20.2161C23.4523 20.3454 23.3337 20.4659 23.2653 20.6099C23.2496 20.6431 23.4057 20.7581 23.4371 20.7895ZM13.5182 16.8905C13.4655 16.819 13.4244 16.7636 13.3834 16.7077C13.3492 16.7663 13.2859 16.8259 13.2882 16.8827C13.2906 16.9409 13.357 16.9967 13.3954 17.0535C13.4314 17.0055 13.4678 16.9575 13.5182 16.8905Z" fill="white"/>
<path d="M26.4214 30.3444C26.4061 30.3546 26.3516 30.3781 26.3133 30.4169C26.1517 30.5812 25.9324 30.7239 25.8489 30.9224C25.6166 31.4718 25.4477 32.0476 25.2404 32.608C25.1919 32.7392 25.0908 32.8509 25.0137 32.9714C25.0391 32.838 25.0645 32.7045 25.0899 32.5711C25.209 31.9492 25.3567 31.3315 25.4389 30.705C25.5169 30.1122 25.5631 29.5203 25.8997 29.0009C25.9241 28.963 25.9417 28.9187 25.9546 28.8748C26.0432 28.5734 26.1282 28.2705 26.2191 27.9699C26.2302 27.9335 26.2708 27.9058 26.2981 27.8739C26.3179 27.9159 26.3613 27.9625 26.354 27.999C26.2612 28.4542 26.1624 28.9085 26.0594 29.3615C26.0488 29.4081 25.9952 29.4436 25.9675 29.488C25.9412 29.5304 25.9227 29.578 25.9006 29.6232C25.9537 29.6075 26.0086 29.596 26.0594 29.5752C26.1166 29.5517 26.1707 29.5198 26.2261 29.4917C26.2367 29.5489 26.2455 29.6071 26.2588 29.6634C26.3092 29.8785 26.3613 30.0932 26.4214 30.3444Z" fill="white"/>
<path d="M27.114 14.3499C27.1671 14.481 27.2077 14.619 27.2774 14.7404C27.3508 14.8697 27.2834 14.9159 27.1906 14.8706C26.9085 14.7335 26.6564 14.8573 26.3836 14.897C26.041 14.9473 25.6841 14.9043 25.3337 14.896C25.2949 14.8951 25.2571 14.8568 25.2188 14.836C25.2465 14.8028 25.2682 14.7492 25.3023 14.74C25.4385 14.7035 25.5775 14.6786 25.7164 14.6536C25.7672 14.6444 25.8434 14.6666 25.8679 14.6389C26.0479 14.4325 26.2774 14.4403 26.5142 14.474C26.5766 14.4833 26.6624 14.4921 26.6929 14.5336C26.8277 14.7174 26.8882 14.5636 26.8951 14.475C26.9076 14.3115 26.8947 14.1384 26.8531 13.98C26.8065 13.8037 26.7142 13.6402 26.6468 13.469C26.6347 13.4385 26.6472 13.3979 26.6486 13.3623C26.6809 13.3771 26.7252 13.3826 26.7432 13.4076C26.9464 13.6864 27.1615 13.9611 27.114 14.3499Z" fill="white"/>
<path d="M24.0963 15.3003C24.1027 15.1313 24.166 14.9808 24.3959 14.9093C24.6018 14.8451 24.6503 14.6572 24.5833 14.4624C24.5418 14.3409 24.4564 14.2352 24.4051 14.1161C24.3853 14.0695 24.4042 14.0062 24.406 13.9508C24.4601 13.9647 24.5192 13.9688 24.5658 13.9947C24.6032 14.0154 24.6355 14.0584 24.6535 14.0985C24.7491 14.3174 24.8303 14.4988 25.0861 14.2167C25.1461 14.1507 25.3534 14.2154 25.4924 14.2292C25.503 14.2301 25.5261 14.328 25.509 14.3437C25.3765 14.4665 25.2399 14.5852 25.0963 14.6946C24.9929 14.7731 24.8617 14.8206 24.774 14.9116C24.7283 14.9587 24.7477 15.0699 24.7417 15.1526C24.738 15.1992 24.7422 15.2468 24.7426 15.2939C24.6937 15.2763 24.641 15.2648 24.5967 15.2389C24.5307 15.2006 24.4702 15.1517 24.4074 15.1073C24.3756 15.2126 24.3322 15.316 24.3151 15.4236C24.3017 15.509 24.3202 15.5995 24.3243 15.6881C24.2486 15.587 24.172 15.4864 24.0976 15.3839C24.0898 15.3742 24.0963 15.3543 24.0963 15.3003Z" fill="white"/>
<path d="M26.4846 13.2052C26.4846 13.2362 26.4953 13.2727 26.4828 13.2962C26.4357 13.3844 26.3812 13.4684 26.3295 13.5538C26.2944 13.4693 26.2519 13.3872 26.2261 13.2999C26.1647 13.0926 26.1176 12.8807 26.0525 12.6743C25.9966 12.4975 25.9301 12.3234 25.8577 12.1531C25.7672 11.9402 25.6651 11.732 25.571 11.5205C25.5511 11.4762 25.5442 11.4264 25.5312 11.3793C25.5871 11.3834 25.6476 11.376 25.697 11.3954C25.7441 11.4139 25.7953 11.4531 25.8189 11.497C26.107 12.0404 26.4122 12.5778 26.4846 13.2052Z" fill="white"/>
<path d="M21.6727 30.983C21.3717 31.1843 21.5753 31.477 21.5231 31.7281C21.5106 31.7881 21.4506 31.838 21.4127 31.8925C21.3652 31.8509 21.3056 31.8168 21.2733 31.7655C21.2202 31.682 21.157 31.5896 21.1477 31.4964C21.1214 31.2244 20.9441 31.0827 20.7382 30.953C20.7013 30.9299 20.6805 30.8809 20.6523 30.844C20.7064 30.8311 20.7696 30.7941 20.8125 30.8103C20.8726 30.8334 20.9257 30.8897 20.9668 30.9433C21.1616 31.1949 21.1907 31.1963 21.4381 30.9751C21.4838 30.934 21.5522 30.9165 21.6127 30.8952C21.6196 30.8929 21.6431 30.9386 21.6727 30.983Z" fill="white"/>
<path d="M27.3747 29.1575C27.462 29.399 27.5516 29.6395 27.6347 29.8824C27.6545 29.9406 27.6522 30.0066 27.6601 30.0689C27.6273 30.0227 27.5848 29.9807 27.564 29.9299C27.3253 29.3528 27.0894 28.7743 26.8544 28.1958C26.8346 28.1469 26.8212 28.0934 26.8184 28.0407C26.817 28.0102 26.8429 27.9779 26.8567 27.9465C26.8817 27.9604 26.9135 27.9687 26.9301 27.9895C26.9879 28.061 27.0811 28.1335 27.0867 28.2115C27.1084 28.4987 27.3013 28.6982 27.4154 28.9373C27.4426 28.9941 27.4283 29.0712 27.4329 29.1391C27.4135 29.1451 27.3941 29.1515 27.3747 29.1575Z" fill="white"/>
<path d="M19.7573 28.434C20.0791 28.4252 20.1364 28.6085 20.1659 28.7729C20.177 28.8357 20.069 28.9691 19.9937 28.989C19.8395 29.0291 19.5223 28.7586 19.5643 28.6261C19.5939 28.5319 19.7204 28.4682 19.7573 28.434Z" fill="white"/>
<path d="M20.1578 30.313C20.1578 30.313 20.1333 30.355 20.1084 30.3966C20.0802 30.3555 20.0354 30.3171 20.0271 30.2724C19.975 29.9953 19.9279 29.7174 19.8872 29.4386C19.8817 29.4007 19.9223 29.3564 19.9417 29.3148C19.9717 29.3448 20.023 29.3711 20.028 29.4053C20.0738 29.6902 20.1112 29.9764 20.1578 30.313Z" fill="white"/>
<path d="M24.681 10.3345C24.832 10.4508 24.9844 10.5441 25.1039 10.6683C25.2097 10.7786 25.2785 10.924 25.3639 11.0538C25.2683 10.9614 25.1787 10.8608 25.0749 10.7786C24.9844 10.7071 24.8722 10.6637 24.7803 10.5939C24.7184 10.5468 24.6741 10.4762 24.6275 10.4125C24.6224 10.4056 24.6552 10.3714 24.681 10.3345Z" fill="white"/>
<path d="M22.55 30.6875C22.4729 30.7392 22.4207 30.789 22.4083 30.7803C22.2813 30.693 22.1594 30.5974 22.0417 30.4977C22.0352 30.4922 22.0777 30.4289 22.0971 30.3925C22.2374 30.4839 22.3782 30.5757 22.55 30.6875Z" fill="white"/>
<path d="M18.9192 16.6106C19.0564 16.6194 19.1953 16.6189 19.3297 16.6429C19.3703 16.6503 19.3994 16.7251 19.4336 16.769C19.3874 16.787 19.3417 16.8068 19.2946 16.8221C19.2812 16.8267 19.2641 16.8174 19.2489 16.8179C19.1441 16.8216 19.0397 16.8262 18.9349 16.8308C18.9382 16.8516 18.9359 16.8867 18.9455 16.8904C19.0725 16.9366 19.2516 17.0548 19.3209 17.009C19.6916 16.7625 19.9313 17.0931 20.2198 17.1813C20.3195 17.2117 20.3943 17.3216 20.4807 17.3955C20.3657 17.4024 20.2503 17.4172 20.1353 17.4139C19.8879 17.4075 19.6529 17.3807 19.4603 17.1808C19.416 17.1351 19.2503 17.1946 19.1445 17.2223C18.9903 17.2625 18.8431 17.3359 18.687 17.3599C18.53 17.3844 18.3666 17.3641 18.2064 17.3669C18.0189 17.3701 17.8975 17.299 17.8098 17.1185C17.6676 16.8262 17.4811 16.5557 17.3389 16.2639C17.3052 16.1951 17.343 16.0224 17.3998 15.9906C17.639 15.8571 17.8841 15.7671 18.1856 15.805C18.687 15.8678 19.1962 15.865 19.7018 15.8899C19.7475 15.8922 19.8057 15.8765 19.8375 15.8987C19.982 15.998 20.1196 16.1078 20.2595 16.214C20.1145 16.2316 19.9645 16.2824 19.826 16.2607C19.3869 16.1909 18.9534 16.1785 18.5286 16.3202C18.4465 16.3474 18.3846 16.4356 18.313 16.4952C18.392 16.5298 18.4682 16.5806 18.5508 16.5958C18.6708 16.618 18.7955 16.6152 18.9178 16.6231C18.9188 16.618 18.9188 16.6143 18.9192 16.6106Z" fill="white"/>
<path d="M17.2737 23.3052C17.1574 23.2558 17.0447 23.2249 16.951 23.1644C16.7063 23.0065 16.4686 22.9335 16.2165 23.1464C16.1948 23.1644 16.1264 23.1676 16.12 23.1556C16.0997 23.1182 16.0794 23.0633 16.0932 23.0282C16.15 22.8809 16.1509 22.7558 16.0193 22.6431C15.993 22.6205 16.0092 22.548 16.0055 22.4986C16.0609 22.4954 16.1324 22.4686 16.1689 22.4936C16.3656 22.6274 16.5678 22.6016 16.7876 22.567C17.0789 22.5203 17.3767 22.5111 17.6722 22.4949C17.7137 22.4926 17.7581 22.5411 17.801 22.566C17.7617 22.6053 17.7294 22.6653 17.6828 22.6796C17.5517 22.7202 17.4118 22.7336 17.2816 22.7761C17.2165 22.7973 17.1639 22.8583 17.1057 22.9012C17.1685 22.9769 17.2243 23.061 17.2968 23.1261C17.3421 23.1667 17.4122 23.1787 17.4713 23.2036C17.4081 23.2355 17.3448 23.2683 17.2737 23.3052Z" fill="white"/>
<path d="M19.2859 21.3383C19.2665 21.3692 19.2397 21.4121 19.2134 21.4546C19.1728 21.426 19.1243 21.4038 19.0938 21.3669C19.0611 21.3263 19.0375 21.2741 19.0232 21.2228C18.8187 20.4795 18.2619 20.0118 17.7106 19.5386C17.6709 19.5044 17.6557 19.4421 17.6289 19.3927C17.6885 19.3752 17.7573 19.3299 17.8057 19.3461C17.9055 19.3793 18.0052 19.432 18.0864 19.4994C18.6054 19.9306 18.9512 20.4888 19.2319 21.0922C19.2633 21.1601 19.2656 21.2413 19.2859 21.3383Z" fill="white"/>
<path d="M19.0706 18.191C18.819 18.0811 18.5614 17.9744 18.3107 17.8535C18.2613 17.8299 18.2382 17.7514 18.2031 17.6988C18.2595 17.6642 18.325 17.5908 18.3712 17.6014C18.6057 17.6545 18.8356 17.7274 19.0656 17.7994C19.1057 17.8119 19.1371 17.8548 19.1717 17.8844C19.2345 17.937 19.2969 17.9897 19.3592 18.0423C19.2761 18.0848 19.193 18.1277 19.0706 18.191Z" fill="white"/>
<defs>
<linearGradient id="paint0_linear" x1="20.5792" y1="0.441406" x2="20.5792" y2="41.5998" gradientUnits="userSpaceOnUse">
<stop stop-color="#6C63FF"/>
<stop offset="1" stop-color="#304FFE"/>
</linearGradient>
</defs>
</svg>
