<svg xmlns="http://www.w3.org/2000/svg" width="32.34375" height="24" style="width:32.34375px;height:24px;font-family:Asana-Math, Asana;background:transparent;"><g><g><g style="transform:matrix(1,0,0,1,2,19);"><path d="M400 -16C446 -16 513 54 545 84L545 97L532 97C513 79 489 55 462 55C417 55 424 184 424 216C474 278 520 343 558 413C551 428 544 444 536 459L525 459C511 391 456 315 420 257C422 336 445 472 332 473C164 473 27 243 24 93C23 33 43 -16 111 -16C203 -16 297 64 357 131C357 96 348 -15 400 -16ZM284 437C371 437 358 224 357 164C314 113 233 28 162 28C109 28 98 70 99 115C100 202 175 437 284 437ZM1634 145L1630 148L1616 148L1612 145C1599 92 1599 75 1539 75L1410 75L1410 82C1544 138 1618 253 1618 398C1618 614 1461 704 1262 704C1061 704 894 621 894 398C894 254 967 138 1101 82L1101 75L972 75C912 75 912 93 899 145L896 148L881 148L877 145C884 95 890 44 895 -6C998 -2 1102 -3 1205 0L1205 68C1044 89 999 235 999 377C999 552 1072 677 1262 677C1456 677 1512 544 1512 374C1512 233 1465 89 1306 68L1306 0C1409 -2 1514 -2 1617 -6C1620 44 1627 95 1634 145Z" stroke="rgb(0, 0, 0)" stroke-width="8" fill="rgb(0, 0, 0)" style="transform:matrix(0.017,0,0,-0.017,0,0);"></path></g></g></g></svg>