<svg xmlns="http://www.w3.org/2000/svg" width="114.234375" height="47" style="width:114.234375px;height:47px;font-family:Asana-Math, Asana;background:transparent;"><g><g><g><g><g><g style="transform:matrix(1,0,0,1,12.390625,20);"><path d="M623 560L65 560L65 0L623 0ZM569 504L569 54L119 54L119 504Z" stroke="rgb(0, 0, 0)" stroke-width="8" fill="rgb(0, 0, 0)" style="transform:matrix(0.017,0,0,-0.017,0,0);"></path></g></g></g><g><g><g style="transform:matrix(1,0,0,1,35.390625,20);"><path d="M623 560L65 560L65 0L623 0ZM569 504L569 54L119 54L119 504Z" stroke="rgb(0, 0, 0)" stroke-width="8" fill="rgb(0, 0, 0)" style="transform:matrix(0.017,0,0,-0.017,0,0);"></path></g></g></g><g><g><g style="transform:matrix(1,0,0,1,12.390625,41);"><path d="M623 560L65 560L65 0L623 0ZM569 504L569 54L119 54L119 504Z" stroke="rgb(0, 0, 0)" stroke-width="8" fill="rgb(0, 0, 0)" style="transform:matrix(0.017,0,0,-0.017,0,0);"></path></g></g></g><g><g><g style="transform:matrix(1,0,0,1,35.390625,41);"><path d="M623 560L65 560L65 0L623 0ZM569 504L569 54L119 54L119 504Z" stroke="rgb(0, 0, 0)" stroke-width="8" fill="rgb(0, 0, 0)" style="transform:matrix(0.017,0,0,-0.017,0,0);"></path></g></g></g><svg x="2" style="overflow:visible;" y="2" height="43" width="7.640625"><path d=" M 5.98 1.70 l -0.10 -0.10 q -1.09 0.03 -2.16 0.03 q -1.02 0.00 -2.14 -0.03 l -0.15 0.22 q 0.15 0.58 0.15 3.15 v 0.85 h 1.43 v -0.85 q 0.00 -1.31 0.07 -2.14 q 0.05 -0.60 1.19 -0.60 h 1.65 l 0.07 -0.09 v -0.44 z  M 1.58 5.63 v 31.75 h 1.43 v -31.75 z " style="fill:rgb(0, 0, 0);stroke-width:1px;stroke:none;"></path><path d=" M 5.98 41.30 l -0.10 0.10 q -1.09 -0.03 -2.16 -0.03 q -1.02 0.00 -2.14 0.03 l -0.15 -0.22 q 0.15 -0.58 0.15 -3.15 v -0.85 h 1.43 v 0.85 q 0.00 1.31 0.07 2.14 q 0.05 0.60 1.19 0.60 h 1.65 l 0.07 0.09 v 0.44 z" style="fill:rgb(0, 0, 0);stroke-width:1px;stroke:none;"></path></svg><svg x="49.859375" style="overflow:visible;" y="2" height="43" width="7.640625"><path d=" M 1.57 1.70 l 0.10 -0.10 q 1.09 0.03 2.16 0.03 q 1.02 0.00 2.14 -0.03 l 0.15 0.22 q -0.15 0.58 -0.15 3.15 v 0.85 h -1.43 v -0.85 q 0.00 -1.31 -0.07 -2.14 q -0.05 -0.60 -1.19 -0.60 h -1.65 l -0.07 -0.09 v -0.44 z  M 5.97 5.63 v 31.75 h -1.43 v -31.75 z" style="fill:rgb(0, 0, 0);stroke-width:1px;stroke:none;"></path><path d=" M 1.57 41.30 l 0.10 0.10 q 1.09 -0.03 2.16 -0.03 q 1.02 0.00 2.14 0.03 l 0.15 -0.22 q -0.15 -0.58 -0.15 -3.15 v -0.85 h -1.43 v 0.85 q 0.00 1.31 -0.07 2.14 q -0.05 0.60 -1.19 0.60 h -1.65 l -0.07 0.09 v 0.44 z" style="fill:rgb(0, 0, 0);stroke-width:1px;stroke:none;"></path></svg></g><g style="transform:matrix(1,0,0,1,57.5,28.96875);"><path d="" stroke="rgb(0, 0, 0)" stroke-width="8" fill="rgb(0, 0, 0)" style="transform:matrix(0.017,0,0,-0.017,0,0);"></path></g><g><g><g><g style="transform:matrix(1,0,0,1,74.625,20);"><path d="M623 560L65 560L65 0L623 0ZM569 504L569 54L119 54L119 504Z" stroke="rgb(0, 0, 0)" stroke-width="8" fill="rgb(0, 0, 0)" style="transform:matrix(0.017,0,0,-0.017,0,0);"></path></g></g></g><g><g></g></g><g><g><g style="transform:matrix(1,0,0,1,74.625,41);"><path d="M623 560L65 560L65 0L623 0ZM569 504L569 54L119 54L119 504Z" stroke="rgb(0, 0, 0)" stroke-width="8" fill="rgb(0, 0, 0)" style="transform:matrix(0.017,0,0,-0.017,0,0);"></path></g></g></g><g><g></g></g><svg x="61.734375" style="overflow:visible;" y="2" height="43" width="8.5"><path d=" M 9.03 1.70 q 0.00 -0.09 -0.12 -0.09 q -0.17 0.00 -0.51 0.17 q -2.26 1.21 -3.26 3.85 t -1.00 7.27 h 1.62 v -1.02 q 0.00 -1.24 0.03 -2.11 t 0.19 -2.13 t 0.43 -2.18 t 0.83 -1.82 t 1.32 -1.49 q 0.48 -0.34 0.48 -0.46 z   M 4.13 12.72 v 3.00 h 1.62 v -3.00 z  M 5.75 15.72 h -1.62 v 0.34 q 0.00 1.24 -0.34 2.27 t -0.80 1.60 t -0.97 0.96 t -0.81 0.53 t -0.35 0.14 v 0.03 q 0.05 0.00 0.35 0.14 t 0.81 0.54 t 0.97 0.99 t 0.80 1.62 t 0.34 2.27 v 0.34 h 1.62 v -0.34 q 0.00 -0.68 -0.14 -1.38 t -0.50 -1.50 t -1.08 -1.51 t -1.74 -1.15 q 1.02 -0.43 1.74 -1.13 t 1.08 -1.51 t 0.50 -1.51 t 0.14 -1.39 v -0.34 z  M 4.13 27.28 v 3.00 h 1.62 v -3.00 z" style="fill:rgb(0, 0, 0);stroke-width:1px;stroke:none;"></path><path d=" M 9.03 41.30 q 0.00 0.09 -0.12 0.09 q -0.17 0.00 -0.51 -0.17 q -2.26 -1.21 -3.26 -3.85 t -1.00 -7.27 h 1.62 v 1.02 q 0.00 1.24 0.03 2.11 t 0.19 2.13 t 0.43 2.18 t 0.83 1.82 t 1.32 1.49 q 0.48 0.34 0.48 0.46 z" style="fill:rgb(0, 0, 0);stroke-width:1px;stroke:none;"></path></svg></g></g></g></svg>