<svg xmlns="http://www.w3.org/2000/svg" width="41.03125" height="25.328125" style="width:41.03125px;height:25.328125px;font-family:Asana-Math, Asana;background:transparent;"><g><g><g style="transform:matrix(1,0,0,1,2,20.328125);"><path d="M623 560L65 560L65 0L623 0ZM569 504L569 54L119 54L119 504Z" stroke="rgb(0, 0, 0)" stroke-width="8" fill="rgb(0, 0, 0)" style="transform:matrix(0.017,0,0,-0.017,0,0);"></path></g><g><g><g><g style="transform:matrix(1,0,0,1,14.671875,13.9);"><path d="M623 560L65 560L65 0L623 0ZM569 504L569 54L119 54L119 504Z" stroke="rgb(0, 0, 0)" stroke-width="8" fill="rgb(0, 0, 0)" style="transform:matrix(0.0119,0,0,-0.0119,0,0);"></path></g></g></g></g><g style="transform:matrix(1,0,0,1,23.875,20.328125);"><path d="" stroke="rgb(0, 0, 0)" stroke-width="8" fill="rgb(0, 0, 0)" style="transform:matrix(0.017,0,0,-0.017,0,0);"></path></g><g style="transform:matrix(1,0,0,1,28.109375,20.328125);"><path d="M148 254C148 224 162 200 192 181L213 195C197 214 191 227 191 243C191 276 204 293 285 366C370 444 395 483 395 540C395 627 316 694 213 694C169 694 134 685 81 659L43 546L72 538L92 586C103 613 134 628 179 628C251 628 302 583 302 519C302 416 148 344 148 254ZM198 111C168 111 141 83 141 53C141 23 168 -5 197 -5C229 -5 257 22 257 53C257 83 229 111 198 111Z" stroke="rgb(0, 0, 0)" stroke-width="8" fill="rgb(0, 0, 0)" style="transform:matrix(0.017,0,0,-0.017,0,0);"></path></g></g></g></svg>