<svg xmlns="http://www.w3.org/2000/svg" width="53.65625" height="39.546875" style="width:53.65625px;height:39.546875px;font-family:Asana-Math, Asana;background:transparent;"><g><g><g><g style="transform:matrix(1,0,0,1,2,29.5);"><path d="M788 13L772 -310L62 -310L420 133L66 620L754 620L768 346L732 346C718 428 694 486 662 522C626 559 572 578 498 578L246 578L524 194L214 -205L512 -205C592 -205 648 -190 680 -162C714 -132 734 -74 746 13Z" stroke="rgb(0, 0, 0)" stroke-width="8" fill="rgb(0, 0, 0)" style="transform:matrix(0.0255,0,0,-0.0255,0,0);"></path></g></g><g><g style="transform:matrix(1,0,0,1,26.234375,29.5);"><path d="M812 48L812 626L759 626L759 42C759 -111 624 -261 449 -261C284 -261 139 -130 139 43L139 626L86 626L86 47C86 -156 255 -313 449 -313C644 -313 812 -156 812 48Z" stroke="rgb(0, 0, 0)" stroke-width="24" fill="rgb(0, 0, 0)" style="transform:matrix(0.0255,0,0,-0.0255,0,0);"></path></g></g></g></g></svg>